<?xml version="1.0" encoding="UTF-8"?>
<svg id="Layer_1" data-name="Layer 1" xmlns="http://www.w3.org/2000/svg" viewBox="0 0 39.2 39.21">
  <defs>
    <style>
      .cls-1 {
        fill: #fff;
      }
    </style>
  </defs>
  <path class="cls-1" d="M35.76,0h3.44V39.21H0c0-3.82,0-7.64,0-11.47,.02,.07,.05,.14,.07,.21,.25,.85,.39,1.75,.77,2.54,1.68,3.44,4.28,6.02,7.67,7.76,1.66,.85,3.46,1.19,5.29,.66,3.01-.88,5.1-2.81,6.11-5.79,.42-1.22,.64-2.51,.94-3.77,.14-.58,.35-1.11,.77-1.55,.51-.52,1.14-.84,1.79-1.14,.74-.33,1.52-.62,2.17-1.09,2.18-1.58,2.84-4.48,1.65-6.98-.32-.67-.72-1.3-1.09-1.97,.06-.07,.14-.15,.22-.24,1.84-1.92,3.72-3.81,5.52-5.77,.75-.81,1.7-1.2,2.62-1.68,.54,.47,.8,.54,1.11,.3,.31-.24,.31-.53,0-1.08,.21-.21,.41-.42,.61-.62,.45,.32,.77,.34,1.03,.09,.27-.27,.24-.53-.09-1.04,.2-.21,.41-.41,.61-.62,.45,.32,.73,.37,.99,.14,.42-.37,.2-.75,.01-1.02,.14-.33,.31-.59,.34-.86,.11-1.28-.38-2.33-1.3-3.2-.58-.55-1.29-.83-2.04-1.04Z"/>
  <path class="cls-1" d="M0,26.22C0,17.49,0,8.75,0,0,11.56,0,23.13,0,34.69,0c-.21,.13-.42,.27-.62,.4-.45-.31-.76-.35-1-.1-.1,.1-.21,.27-.19,.39,.03,.24,.14,.46,.25,.78-.05,.04-.18,.11-.27,.21-.1,.11-.18,.25-.25,.36-.56-.41-.83-.44-1.11-.18-.26,.25-.24,.57,.08,1.06-.2,.2-.4,.41-.6,.61-.5-.32-.83-.34-1.07-.07-.28,.3-.22,.58,.27,1.17-.17,.33-.36,.66-.5,1.01-.25,.6-.64,1.08-1.11,1.52-1.95,1.85-3.88,3.72-5.81,5.58-.09,.09-.19,.17-.29,.26-.1-.06-.18-.11-.26-.17-.76-.54-1.58-.96-2.46-1.27-2.32-.79-5.1,.16-6.38,2.26-.4,.64-.67,1.37-.96,2.07-.56,1.33-1.46,2.21-2.95,2.46-1.13,.2-2.27,.47-3.36,.83-2.9,.96-4.8,2.96-5.77,5.85C.17,25.43,.1,25.83,0,26.22Z"/>
  <path d="M0,26.22c.1-.39,.17-.79,.3-1.17,.97-2.89,2.87-4.89,5.77-5.85,1.09-.36,2.22-.64,3.36-.83,1.49-.26,2.39-1.13,2.95-2.46,.3-.7,.57-1.42,.96-2.07,1.29-2.09,4.06-3.04,6.38-2.26,.89,.3,1.71,.72,2.46,1.27,.08,.06,.17,.11,.26,.17,.1-.09,.2-.18,.29-.26,1.94-1.86,3.86-3.73,5.81-5.58,.47-.45,.86-.92,1.11-1.52,.15-.35,.34-.68,.5-1.01-.48-.58-.55-.86-.27-1.17,.25-.27,.57-.25,1.07,.07,.2-.2,.4-.4,.6-.61-.32-.5-.34-.82-.08-1.06,.28-.26,.55-.23,1.11,.18,.08-.11,.15-.25,.25-.36,.09-.1,.22-.18,.27-.21-.11-.32-.22-.54-.25-.78-.01-.12,.09-.29,.19-.39,.24-.25,.55-.21,1,.1C34.27,.27,34.48,.13,34.69,0c.36,0,.71,0,1.07,0,.75,.21,1.46,.49,2.04,1.04,.92,.87,1.41,1.92,1.3,3.2-.02,.27-.2,.53-.34,.86,.19,.27,.41,.64-.01,1.02-.26,.23-.54,.19-.99-.14-.2,.21-.41,.41-.61,.62,.33,.51,.35,.78,.09,1.04-.25,.26-.58,.23-1.03-.09-.2,.2-.4,.41-.61,.62,.31,.55,.32,.84,0,1.08-.31,.24-.57,.17-1.11-.3-.91,.48-1.87,.86-2.62,1.68-1.8,1.96-3.68,3.85-5.52,5.77-.08,.08-.15,.17-.22,.24,.37,.67,.77,1.3,1.09,1.97,1.19,2.5,.53,5.4-1.65,6.98-.65,.47-1.43,.76-2.17,1.09-.65,.3-1.28,.61-1.79,1.14-.42,.44-.63,.97-.77,1.55-.3,1.26-.53,2.54-.94,3.77-1.01,2.98-3.1,4.92-6.11,5.79-1.83,.53-3.63,.19-5.29-.66-3.4-1.74-5.99-4.32-7.67-7.76-.38-.78-.52-1.69-.77-2.54-.02-.07-.05-.14-.07-.21,0-.51,0-1.02,0-1.53ZM21.56,13.9c-.59-.32-1.09-.64-1.63-.88-1.96-.88-4.14-.38-5.34,1.27-.44,.61-.72,1.34-1,2.04-.76,1.86-2.06,2.99-4.07,3.32-1.38,.23-2.75,.52-4.02,1.14-1.87,.92-3.16,2.39-3.88,4.32-.63,1.7-.37,3.38,.42,4.95,1.47,2.94,3.72,5.17,6.55,6.8,1.27,.73,2.66,1.16,4.13,.95,2.61-.38,4.45-1.88,5.63-4.2,.64-1.26,.9-2.64,1.14-4.02,.31-1.83,1.28-3.12,2.97-3.88,.42-.19,.84-.35,1.27-.53,2.11-.88,3.13-2.72,2.71-4.96-.18-.96-.63-1.8-1.24-2.6-1.2,1.24-2.36,2.46-3.54,3.66-.27,.27-.39,.55-.41,.93-.14,2.34-2.31,4-4.72,3.62-2.19-.35-3.71-2.67-3.18-4.85,.44-1.79,1.88-2.99,3.74-3.11,.17-.01,.38-.04,.49-.14,1.31-1.24,2.61-2.5,3.99-3.83Zm9.76-4.48c-.55-.55-1.07-1.07-1.6-1.61-3.58,3.45-7.18,6.92-10.81,10.42,.96,.43,1.57,1.12,2.03,1.99,3.49-3.63,6.95-7.22,10.39-10.8Zm3.97-8.2c-.15,.09-.32,.16-.45,.29-.8,.78-1.55,1.62-2.39,2.36-.85,.75-1.36,1.7-1.81,2.69-.04,.09-.01,.27,.06,.35,.49,.52,1,1.02,1.51,1.52,.06,.06,.2,.14,.25,.12,.65-.33,1.39-.58,1.93-1.05,1.15-1.02,2.2-2.15,3.28-3.25,.1-.1,.17-.28,.17-.43,0-1.26-1.24-2.5-2.54-2.59ZM17.26,24.62c1.52,0,2.76-1.28,2.74-2.8-.02-1.47-1.29-2.71-2.73-2.69-1.54,.03-2.75,1.24-2.75,2.74,0,1.51,1.24,2.75,2.75,2.74Z"/>
  <path class="cls-1" d="M21.56,13.9c-1.38,1.33-2.68,2.59-3.99,3.83-.11,.1-.32,.13-.49,.14-1.86,.12-3.3,1.32-3.74,3.11-.53,2.19,.99,4.51,3.18,4.85,2.41,.38,4.58-1.27,4.72-3.62,.02-.38,.15-.66,.41-.93,1.18-1.2,2.34-2.42,3.54-3.66,.61,.79,1.06,1.64,1.24,2.6,.42,2.25-.6,4.08-2.71,4.96-.42,.18-.85,.34-1.27,.53-1.69,.76-2.65,2.05-2.97,3.88-.24,1.38-.5,2.76-1.14,4.02-1.18,2.33-3.02,3.82-5.63,4.2-1.47,.22-2.86-.22-4.13-.95-2.83-1.63-5.08-3.86-6.55-6.8-.79-1.58-1.05-3.25-.42-4.95,.72-1.94,2-3.4,3.88-4.32,1.27-.62,2.64-.91,4.02-1.14,2.01-.33,3.32-1.46,4.07-3.32,.29-.7,.56-1.44,1-2.04,1.2-1.66,3.38-2.15,5.34-1.27,.54,.24,1.05,.56,1.63,.88Zm-8.23,18.38c-.08-.11-.2-.33-.37-.5-1.86-1.87-3.72-3.73-5.58-5.59-.1-.1-.2-.2-.32-.27-.29-.17-.56-.14-.79,.11-.22,.24-.21,.51-.05,.77,.06,.1,.14,.18,.23,.26,1.88,1.88,3.76,3.76,5.64,5.64,.1,.1,.2,.2,.32,.27,.42,.23,.92-.07,.92-.68Z"/>
  <path class="cls-1" d="M31.31,9.42c-3.44,3.58-6.9,7.17-10.39,10.8-.46-.87-1.07-1.56-2.03-1.99,3.63-3.5,7.23-6.97,10.81-10.42,.54,.54,1.05,1.06,1.6,1.61Z"/>
  <path class="cls-1" d="M35.29,1.22c1.3,.08,2.55,1.33,2.54,2.59,0,.15-.07,.33-.17,.43-1.08,1.1-2.13,2.23-3.28,3.25-.53,.47-1.27,.72-1.93,1.05-.05,.03-.18-.06-.25-.12-.51-.5-1.02-1-1.51-1.52-.07-.07-.1-.26-.06-.35,.45-1,.96-1.94,1.81-2.69,.84-.74,1.59-1.58,2.39-2.36,.12-.12,.3-.19,.45-.29Z"/>
  <path class="cls-1" d="M17.26,24.62c-1.51,0-2.75-1.24-2.75-2.74,0-1.5,1.22-2.72,2.75-2.74,1.44-.03,2.71,1.22,2.73,2.69,.02,1.52-1.22,2.79-2.74,2.8Z"/>
  <path d="M13.32,32.28c0,.61-.51,.91-.92,.68-.12-.07-.22-.17-.32-.27-1.88-1.88-3.76-3.76-5.64-5.64-.08-.08-.17-.16-.23-.26-.16-.26-.17-.54,.05-.77,.23-.25,.51-.28,.79-.11,.12,.07,.22,.17,.32,.27,1.86,1.86,3.73,3.72,5.58,5.59,.17,.17,.29,.39,.37,.5Z"/>
</svg>