<?xml version="1.0" encoding="UTF-8"?>
<svg id="Layer_1" data-name="Layer 1" xmlns="http://www.w3.org/2000/svg" viewBox="0 0 39.33 39.33">
  <defs>
    <style>
      .cls-1 {
        fill: #fff;
      }
    </style>
  </defs>
  <path class="cls-1" d="M39.33,9.37v29.96H0C0,26.22,0,13.11,0,0c13.11,0,26.22,0,39.33,0,0,2.77,0,5.53,0,8.3-.03-.04-.06-.08-.07-.12-.38-1.38-1.52-2.32-2.93-2.5-1.43-.18-2.76,.12-4.04,.73-3.26,1.54-6.53,3.07-9.79,4.61-.25,.12-.46,.14-.72,.04-2.63-1.04-5.26-2.08-7.9-3.1-1.28-.5-2.56-1.02-3.87-1.42-1.49-.45-2.61-.02-3.19,1.2-.52,1.09-.5,1.59,.49,2.24,2.26,1.49,4.47,3.06,6.7,4.59,.11,.07,.21,.16,.34,.26-1.42,.67-2.78,1.33-4.16,1.96-.13,.06-.32,.03-.48,0-2.22-.56-4.45-1.13-6.67-1.69-.69-.17-.87-.1-1.21,.52-.51,.93-1.03,1.85-1.54,2.78-.37,.68-.26,1.02,.45,1.31,1.58,.66,3.16,1.31,4.73,1.96,.11,.05,.22,.1,.39,.18-.35,.16-.63,.3-.91,.43-.6,.29-.72,.59-.44,1.19,.44,.95,.88,1.9,1.32,2.85,.33,.71,.62,.82,1.33,.48,3.3-1.55,6.61-3.09,9.91-4.64,.46-.22,.92-.43,1.44-.67-.02,.29-.03,.53-.05,.77-.06,.7-.13,1.4-.2,2.1-.17,1.74-.34,3.49-.5,5.23-.09,.94-.19,1.88-.25,2.83-.01,.23,.07,.55,.23,.68,.9,.78,2.34,1.05,3.4,0,.6-.59,.92-1.34,1.19-2.12,1.46-4.34,2.93-8.68,4.38-13.03,.09-.27,.23-.44,.5-.57,2.77-1.28,5.52-2.59,8.29-3.86,1.87-.86,3.34-2.06,3.85-4.16Z"/>
  <path d="M39.33,9.37c-.51,2.11-1.98,3.31-3.85,4.16-2.77,1.27-5.52,2.58-8.29,3.86-.27,.13-.41,.29-.5,.57-1.46,4.34-2.92,8.68-4.38,13.03-.26,.78-.59,1.53-1.19,2.12-1.06,1.04-2.49,.77-3.4,0-.16-.14-.24-.46-.23-.68,.06-.94,.16-1.89,.25-2.83,.17-1.74,.34-3.49,.5-5.23,.07-.7,.14-1.4,.2-2.1,.02-.24,.03-.48,.05-.77-.51,.24-.98,.45-1.44,.67-3.3,1.55-6.61,3.09-9.91,4.64-.71,.33-1,.23-1.33-.48-.44-.95-.88-1.9-1.32-2.85-.28-.6-.16-.91,.44-1.19,.28-.13,.57-.27,.91-.43-.17-.08-.28-.13-.39-.18-1.58-.65-3.16-1.31-4.73-1.96-.71-.3-.83-.63-.45-1.31,.51-.93,1.03-1.86,1.54-2.78,.34-.61,.53-.69,1.21-.52,2.22,.57,4.44,1.13,6.67,1.69,.15,.04,.35,.07,.48,0,1.38-.64,2.74-1.29,4.16-1.96-.14-.1-.24-.19-.34-.26-2.23-1.54-4.44-3.1-6.7-4.59-.99-.65-1.01-1.15-.49-2.24,.58-1.23,1.7-1.66,3.19-1.2,1.31,.4,2.59,.93,3.87,1.42,2.64,1.02,5.27,2.06,7.9,3.1,.26,.1,.47,.08,.72-.04,3.26-1.54,6.53-3.07,9.79-4.61,1.29-.61,2.61-.91,4.04-.73,1.41,.18,2.54,1.12,2.93,2.5,.01,.04,.05,.08,.07,.12v1.08Zm-11.86,6.36c.08-.02,.11-.03,.15-.05,2.57-1.21,5.15-2.41,7.72-3.63,1.03-.49,1.87-1.19,2.37-2.25,.57-1.2,0-2.39-1.3-2.68-1.21-.27-2.34-.01-3.45,.5-7.42,3.48-14.85,6.95-22.27,10.43-.36,.17-.68,.2-1.07,.11-2.14-.54-4.28-1.07-6.42-1.59-.11-.03-.3-.03-.33,.03-.39,.65-.76,1.32-1.14,1.99,.19,.08,.33,.15,.47,.21,1.8,.75,3.6,1.49,5.4,2.24,.06,.02,.12,.05,.18,.08,.29,.13,.49,.33,.49,.67,0,.32-.18,.52-.45,.65-.62,.29-1.24,.58-1.88,.89,.33,.7,.64,1.37,.96,2.04,.18-.08,.32-.14,.46-.21,3.6-1.68,7.21-3.37,10.82-5.04,.37-.17,.54-.37,.55-.79,0-.53,.08-1.07,.15-1.6,.05-.42,.38-.7,.75-.67,.39,.04,.63,.33,.62,.78,0,.2-.02,.41-.04,.61-.09,.94-.18,1.88-.27,2.83-.16,1.74-.33,3.49-.49,5.23-.17,1.77-.34,3.54-.5,5.31-.04,.49,.1,.64,.6,.59,.21-.02,.49-.12,.59-.28,.33-.51,.68-1.03,.87-1.6,1.84-5.42,3.65-10.86,5.47-16.29,.05-.16,.11-.32,.2-.46,.18-.3,.46-.4,.79-.3,.32,.1,.54,.41,.46,.74-.11,.49-.28,.98-.45,1.51Zm-7.11-3.74c-.15-.07-.21-.1-.28-.13-3.21-1.26-6.43-2.52-9.64-3.76-.39-.15-.81-.24-1.22-.31-.58-.11-1.04,.14-1.24,.6-.08,.19-.07,.31,.12,.44,2.51,1.71,5.01,3.43,7.52,5.15,.09,.06,.27,.1,.37,.05,1.44-.66,2.86-1.33,4.36-2.03Z"/>
  <path class="cls-1" d="M27.47,15.74c.16-.53,.33-1.02,.45-1.51,.08-.33-.14-.64-.46-.74-.33-.1-.61,0-.79,.3-.09,.14-.14,.3-.2,.46-1.82,5.43-3.63,10.87-5.47,16.29-.19,.57-.54,1.09-.87,1.6-.1,.16-.38,.26-.59,.28-.5,.06-.64-.1-.6-.59,.16-1.77,.33-3.54,.5-5.31,.17-1.74,.33-3.49,.49-5.23,.09-.94,.18-1.88,.27-2.83,.02-.2,.04-.41,.04-.61,0-.44-.23-.74-.62-.78-.37-.04-.7,.24-.75,.67-.06,.53-.15,1.07-.15,1.6,0,.42-.18,.62-.55,.79-3.61,1.67-7.21,3.36-10.82,5.04-.14,.06-.28,.12-.46,.21-.32-.67-.63-1.34-.96-2.04,.64-.3,1.26-.6,1.88-.89,.28-.13,.45-.34,.45-.65,0-.33-.19-.54-.49-.67-.06-.02-.12-.05-.18-.08-1.8-.75-3.6-1.49-5.4-2.24-.14-.06-.28-.12-.47-.21,.38-.68,.75-1.34,1.14-1.99,.03-.06,.23-.05,.33-.03,2.14,.52,4.28,1.05,6.42,1.59,.38,.1,.71,.06,1.07-.11,7.42-3.48,14.85-6.95,22.27-10.43,1.1-.52,2.24-.77,3.45-.5,1.29,.29,1.87,1.48,1.3,2.68-.5,1.05-1.34,1.76-2.37,2.25-2.57,1.22-5.15,2.42-7.72,3.63-.03,.02-.07,.02-.15,.05Z"/>
  <path class="cls-1" d="M20.36,12c-1.5,.7-2.93,1.38-4.36,2.03-.1,.04-.28,.01-.37-.05-2.51-1.71-5.01-3.43-7.52-5.15-.19-.13-.2-.26-.12-.44,.2-.47,.66-.71,1.24-.6,.41,.08,.83,.16,1.22,.31,3.22,1.25,6.43,2.51,9.64,3.76,.07,.03,.13,.06,.28,.13Z"/>
</svg>