<?xml version="1.0" encoding="UTF-8"?>
<svg id="Layer_1" data-name="Layer 1" xmlns="http://www.w3.org/2000/svg" viewBox="0 0 39.48 39.48">
  <defs>
    <style>
      .cls-1 {
        fill: #fff;
      }
    </style>
  </defs>
  <path class="cls-1" d="M39.48,39.48H0V0H39.48V39.48Zm-7.27-25.78c1.32-.44,2.65-.88,3.99-1.32,.51-.17,.73-.41,.75-.81,.02-.47-.28-.7-.67-.88-1.24-.56-2.46-1.14-3.7-1.68-.38-.17-.64-.36-.72-.79-.05-.28-.19-.56-.32-.82-1.89-3.93-6.36-4.07-8.72-1.96-1.33,1.19-1.89,2.75-1.95,4.49-.03,.69-.17,1.32-.53,1.9-.27,.43-.54,.88-.84,1.29-1.75,2.37-3.83,4.42-6.04,6.34-3.16,2.73-6.52,5.14-10.4,6.76-.65,.27-.78,.85-.35,1.4,.98,1.23,1.98,2.46,2.97,3.69,.47,.59,.8,.64,1.45,.22,1.29-.84,2.58-1.67,3.86-2.52,.2-.13,.37-.15,.6-.08,.97,.28,1.93,.6,2.92,.79,1.14,.22,2.3,.32,3.5,.47,.3,1.1,.63,2.27,.96,3.47h-.48c-1.51,0-3.03,0-4.54,0-.74,0-1.15,.3-1.15,.84,0,.54,.41,.84,1.15,.84,5.16,0,10.31,0,15.47,0,.19,0,.39-.01,.57-.07,.36-.12,.54-.4,.54-.76,0-.36-.18-.64-.54-.76-.15-.05-.33-.07-.49-.07-1.23,0-2.46,0-3.69-.01-.12,0-.31-.09-.34-.18-.47-1.55-.91-3.12-1.35-4.64,5.91-3.32,8.11-8.59,8.1-15.11Z"/>
  <path d="M32.21,13.7c0,6.52-2.19,11.79-8.1,15.11,.44,1.53,.88,3.09,1.35,4.64,.03,.09,.22,.18,.34,.18,1.23,.01,2.46,0,3.69,.01,.16,0,.34,.02,.49,.07,.35,.12,.54,.4,.54,.76,0,.36-.18,.65-.54,.76-.18,.06-.38,.07-.57,.07-5.16,0-10.31,0-15.47,0-.74,0-1.15-.3-1.15-.84,0-.54,.41-.84,1.15-.84,1.51,0,3.03,0,4.54,0h.48c-.33-1.21-.65-2.37-.96-3.47-1.2-.16-2.36-.26-3.5-.47-.99-.19-1.95-.51-2.92-.79-.23-.07-.4-.06-.6,.08-1.28,.85-2.57,1.68-3.86,2.52-.64,.42-.97,.36-1.45-.22-.99-1.23-1.98-2.45-2.97-3.69-.44-.55-.3-1.13,.35-1.4,3.88-1.62,7.24-4.03,10.4-6.76,2.22-1.91,4.3-3.97,6.04-6.34,.3-.41,.57-.85,.84-1.29,.36-.58,.51-1.21,.53-1.9,.07-1.74,.63-3.3,1.95-4.49,2.36-2.12,6.83-1.97,8.72,1.96,.13,.26,.27,.54,.32,.82,.08,.43,.34,.63,.72,.79,1.24,.54,2.47,1.13,3.7,1.68,.39,.18,.68,.41,.67,.88-.01,.4-.23,.64-.75,.81-1.33,.44-2.67,.89-3.99,1.32ZM6.63,29.84c1.3-.85,2.56-1.65,3.8-2.49,.43-.29,.82-.33,1.29-.15,2.01,.74,4.07,1.21,6.22,1.22,4.2,.01,7.56-1.64,9.95-5.12,1.98-2.89,2.77-6.13,2.6-9.61-.05-1.05,.01-1.17,.96-1.49,.77-.26,1.53-.51,2.39-.8-.75-.34-1.39-.69-2.07-.94-.82-.3-1.26-.79-1.5-1.68-.65-2.36-2.76-3.53-4.99-2.87-1.6,.47-2.35,1.69-2.67,3.22-.12,.6-.09,1.23-.22,1.83-.27,1.23-.99,2.24-1.72,3.23-2.06,2.76-4.55,5.11-7.18,7.31-.21,.17-.42,.35-.66,.54,1.66,.46,3.27,.58,4.81,.19,2.85-.72,4.81-2.37,5.38-5.38,.09-.48,.47-.75,.95-.7,.44,.05,.75,.46,.7,.95-.04,.32-.09,.64-.19,.94-.87,2.71-2.71,4.51-5.34,5.5-2.53,.95-5.06,.67-7.57-.11-.3-.09-.48-.04-.72,.12-1.64,1.05-3.28,2.08-4.94,3.11-.41,.25-.86,.45-1.31,.67,.68,.85,1.34,1.66,2.02,2.51Zm15.93-.41c-.98,.21-1.92,.42-2.87,.63,.31,1.12,.62,2.23,.93,3.34,.03,.1,.15,.23,.23,.23,.96,.02,1.92,.01,2.92,.01-.41-1.44-.82-2.84-1.21-4.21Z"/>
  <path class="cls-1" d="M6.63,29.84c-.68-.84-1.34-1.66-2.02-2.51,.45-.23,.9-.42,1.31-.67,1.65-1.02,3.3-2.06,4.94-3.11,.25-.16,.43-.21,.72-.12,2.51,.78,5.04,1.06,7.57,.11,2.63-.99,4.47-2.79,5.34-5.5,.1-.3,.15-.62,.19-.94,.06-.48-.26-.89-.7-.95-.48-.06-.85,.21-.95,.7-.57,3.02-2.53,4.67-5.38,5.38-1.54,.39-3.15,.28-4.81-.19,.24-.2,.45-.37,.66-.54,2.64-2.2,5.12-4.55,7.18-7.31,.74-.99,1.45-2,1.72-3.23,.13-.6,.1-1.23,.22-1.83,.32-1.54,1.07-2.75,2.67-3.22,2.22-.66,4.34,.51,4.99,2.87,.24,.89,.68,1.38,1.5,1.68,.68,.25,1.32,.59,2.07,.94-.86,.29-1.63,.55-2.39,.8-.95,.32-1.02,.44-.96,1.49,.18,3.49-.61,6.73-2.6,9.61-2.39,3.47-5.75,5.13-9.95,5.12-2.15,0-4.22-.48-6.22-1.22-.48-.18-.87-.14-1.29,.15-1.24,.84-2.51,1.64-3.8,2.49Z"/>
  <path class="cls-1" d="M22.56,29.44c.39,1.37,.79,2.77,1.21,4.21-1,0-1.96,0-2.92-.01-.08,0-.2-.14-.23-.23-.32-1.1-.62-2.21-.93-3.34,.95-.21,1.89-.41,2.87-.63Z"/>
</svg>