<?xml version="1.0" encoding="UTF-8"?>
<svg id="Layer_1" data-name="Layer 1" xmlns="http://www.w3.org/2000/svg" viewBox="0 0 37.59 37.59">
  <defs>
    <style>
      .cls-1 {
        fill: #fff;
      }
    </style>
  </defs>
  <path class="cls-1" d="M37.59,31.73v5.86H0C0,25.06,0,12.53,0,0c12.53,0,25.06,0,37.59,0,0,2.69,0,5.37,0,8.06-.2-.42-.55-.54-.99-.52-.72,.02-1.44,0-2.21,0,0-.31,.02-.59,0-.87-.03-.43-.21-.63-.63-.74-2.58-.64-5.19-.84-7.84-.44-2.11,.32-4.09,1.02-5.81,2.32-.45,.34-.86,.71-1.3,1.07-.05-.04-.1-.08-.15-.12-2.03-2.01-4.54-2.98-7.32-3.33-2.49-.32-4.97-.13-7.4,.49-.5,.13-.69,.36-.7,.88,0,.23,0,.46,0,.73-.73,0-1.42,0-2.12,0-.84,0-1.04,.2-1.04,1.03,0,7.53,0,15.07,0,22.6,0,.12,0,.24,0,.37,.05,.51,.53,.81,1.01,.62,.2-.08,.39-.19,.6-.28,2.43-1.07,4.97-1.68,7.61-1.93,2.71-.25,5.38-.09,8.04,.44,.69,.14,1.36,.4,2.12,.2,1.67-.44,3.37-.67,5.09-.75,2.1-.1,4.19,.03,6.27,.43,1.9,.36,3.74,.91,5.48,1.76,.64,.32,.88,.28,1.29-.29Z"/>
  <path d="M37.59,31.73c-.41,.57-.65,.61-1.29,.29-1.74-.85-3.58-1.39-5.48-1.76-2.07-.4-4.16-.52-6.27-.43-1.72,.08-3.43,.31-5.09,.75-.75,.2-1.42-.06-2.12-.2-2.66-.54-5.34-.7-8.04-.44-2.64,.25-5.18,.86-7.61,1.93-.2,.09-.39,.2-.6,.28-.48,.19-.96-.11-1.01-.62-.01-.12,0-.24,0-.37,0-7.53,0-15.07,0-22.6,0-.82,.21-1.03,1.04-1.03,.69,0,1.39,0,2.12,0,0-.27,0-.5,0-.73,.01-.52,.2-.75,.7-.88,2.44-.62,4.91-.81,7.4-.49,2.77,.35,5.29,1.32,7.32,3.33,.04,.04,.09,.08,.15,.12,.44-.36,.85-.74,1.3-1.07,1.73-1.3,3.7-1.99,5.81-2.32,2.64-.4,5.25-.21,7.84,.44,.42,.1,.6,.31,.63,.74,.02,.28,0,.55,0,.87,.77,0,1.49,.02,2.21,0,.45-.01,.79,.11,.99,.52V31.73ZM4.71,7.28V26.39c4.64-.47,9.18-.41,13.39,2.04,0-.19,0-.33,0-.48,0-5.58-.03-11.16,0-16.74,0-.67-.21-1.11-.69-1.54-2.17-1.96-4.78-2.7-7.61-2.85-1.7-.09-3.39,.08-5.08,.46Zm28.2,0c-2.51-.54-5-.67-7.5-.15-2.17,.46-4.11,1.38-5.64,3.03-.11,.12-.2,.31-.2,.47-.01,5.84,0,11.67,0,17.51,0,.09,.02,.17,.02,.21,.88-.39,1.73-.82,2.62-1.14,2.84-1.02,5.79-1.17,8.77-.99,.64,.04,1.28,.11,1.94,.17V7.28Zm1.52,1.74c0,.2,0,.35,0,.51,0,5.84,0,11.67,0,17.51,0,.69-.33,.98-1.01,.89-2.16-.29-4.32-.43-6.5-.23-1.3,.11-2.58,.36-3.82,.78,4.48-.45,8.81,.16,13.01,1.84V9.02h-1.68ZM14.49,28.47c-1.52-.51-3.09-.78-4.68-.84-1.89-.07-3.78,.04-5.65,.33-.44,.07-.79-.19-.86-.64-.03-.17-.03-.34-.03-.51,0-5.77,0-11.55,0-17.32v-.47H1.55V30.32c4.18-1.68,8.48-2.28,12.93-1.85Z"/>
  <path class="cls-1" d="M4.71,7.28c1.7-.38,3.38-.55,5.08-.46,2.83,.15,5.45,.9,7.61,2.85,.47,.43,.69,.87,.69,1.54-.02,5.58,0,11.16,0,16.74,0,.15,0,.29,0,.48-4.2-2.45-8.74-2.51-13.39-2.04V7.28Z"/>
  <path class="cls-1" d="M32.91,7.28V26.39c-.66-.06-1.3-.13-1.94-.17-2.98-.18-5.93-.03-8.77,.99-.89,.32-1.74,.75-2.62,1.14,0-.03-.02-.12-.02-.21,0-5.84,0-11.67,0-17.51,0-.16,.09-.35,.2-.47,1.53-1.65,3.47-2.57,5.64-3.03,2.5-.53,4.99-.39,7.5,.15Z"/>
  <path class="cls-1" d="M34.43,9.02h1.68V30.32c-4.2-1.68-8.53-2.3-13.01-1.84,1.24-.43,2.52-.67,3.82-.78,2.17-.19,4.34-.05,6.5,.23,.68,.09,1.01-.2,1.01-.89,0-5.84,0-11.67,0-17.51,0-.16,0-.31,0-.51Z"/>
  <path class="cls-1" d="M14.49,28.47c-4.45-.43-8.76,.17-12.93,1.85V9.03h1.7v.47c0,5.77,0,11.55,0,17.32,0,.17,0,.34,.03,.51,.08,.45,.42,.71,.86,.64,1.87-.29,3.76-.41,5.65-.33,1.6,.06,3.17,.33,4.68,.84Z"/>
</svg>