<?xml version="1.0" encoding="UTF-8"?>
<svg id="Layer_1" data-name="Layer 1" xmlns="http://www.w3.org/2000/svg" viewBox="0 0 39.21 39.21">
  <defs>
    <style>
      .cls-1 {
        fill: #fff;
      }
    </style>
  </defs>
  <path class="cls-1" d="M0,26.65C0,17.77,0,8.88,0,0c13.07,0,26.14,0,39.21,0V39.21H0C0,35.61,0,32.02,0,28.42c.03,.16,.07,.32,.09,.48,.81,4.89,5.41,8.78,9.97,8.9,2.78,.07,5.29-1.42,6.44-3.95,.44-.97,.66-2.01,.76-3.06,.09-.99,.5-1.69,1.44-2.05,.3-.11,.59-.25,.86-.41,.79-.46,1.61-.87,2.34-1.41,.67-.49,.74-1.25,.35-1.87-.4-.62-1.09-.81-1.84-.5-1.08,.45-1.78,.25-2.52-.66-.24-.3-.24-.47,.04-.75,4.46-4.63,8.91-9.26,13.36-13.9,.44-.46,1.01-.65,1.55-.9,.19-.09,.49,.01,.72,.09,.51,.18,.92,.08,1.26-.33,.06-.08,.13-.16,.19-.24,.94-1.37,2.01-2.58,3.6-3.25,.65-.28,.72-1.06,.23-1.57-.42-.44-.86-.87-1.3-1.3-.27-.26-.59-.36-.95-.26-.61,.16-1.23,.34-1.83,.52-.34,.11-.5,.41-.42,.71,.09,.32,.4,.48,.76,.38,.49-.13,.98-.28,1.47-.4,.09-.02,.24-.03,.3,.03,.34,.3,.67,.61,1.03,.95-.18,.11-.27,.18-.37,.22-1.18,.51-2.1,1.33-2.79,2.41-.1,.15-.23,.28-.33,.42-.25,.36-.48,.73-1.01,.42-.05-.03-.13-.02-.19-.01-.54,.12-1.07,.24-1.71,.38-.39-.39-.88-.88-1.36-1.39-.07-.07-.08-.26-.04-.36,.17-.4,.35-.79,.56-1.17,.08-.14,.23-.27,.37-.32,.45-.16,.93-.27,1.38-.42,.33-.11,.45-.38,.37-.7-.07-.3-.31-.47-.6-.4-.67,.16-1.32,.37-1.98,.57-.11,.04-.24,.13-.29,.23-.38,.76-.73,1.53-1.1,2.3-.08,.16-.13,.36-.26,.48-3.61,3.49-7.23,6.98-10.85,10.46-.08,.07-.16,.14-.25,.22-.35-.49-.61-.97-.65-1.56-.06-.96,.46-1.6,1.11-2.2,.55-.5,.68-1.12,.39-1.73-.29-.59-.87-.88-1.6-.77-.72,.11-1.37,.37-1.98,.77-1.4,.92-2.25,2.25-2.88,3.77-.33,.8-.65,1.61-1.04,2.38-.47,.94-1.28,1.5-2.3,1.73-.53,.12-1.07,.24-1.59,.38-1.36,.37-2.65,.89-3.79,1.75-.35,.26-.42,.61-.21,.89,.21,.27,.53,.29,.88,.06,.21-.14,.42-.29,.63-.43,1.23-.76,2.59-1.17,4-1.44,1.8-.34,3.03-1.35,3.74-3.04,.13-.31,.25-.61,.39-.91,.41-.86,.75-1.76,1.25-2.57,.63-1.03,1.53-1.81,2.75-2.12,.22-.05,.59-.06,.68,.07,.19,.26-.17,.4-.33,.55-1.52,1.48-1.69,3.25-.46,4.99,.06,.08,.11,.16,.17,.27-.12,.11-.22,.2-.32,.3-1.25,1.2-2.5,2.41-3.74,3.61-.52,.51-.53,1.05-.02,1.57,.62,.63,1.24,1.25,1.86,1.87,.52,.51,1.05,.5,1.57-.01,.28-.27,.56-.54,.84-.8,1,1.36,2.41,2.04,4.09,1.22,.09-.04,.24,.04,.37,.07-.03,.12-.03,.3-.11,.35-.56,.37-1.12,.74-1.71,1.07-.67,.37-1.37,.68-2.03,1.05-.63,.36-1.01,.92-1.14,1.64-.1,.58-.21,1.15-.3,1.73-.57,3.66-3.54,5.74-7.14,4.97-3.25-.7-5.54-2.65-6.93-5.64-.99-2.12-1.11-4.3,.06-6.43,.19-.34,.09-.66-.21-.83-.29-.17-.62-.08-.8,.27-.22,.42-.42,.84-.57,1.29-.16,.49-.26,1-.39,1.51Zm10,4.99s.04-.03,.06-.04c-.15-.3-.24-.66-.46-.89-.83-.88-1.69-1.74-2.56-2.57-.56-.54-1.36-.51-1.93,.02-.14,.13-.27,.27-.41,.4-.65,.67-.66,1.46,0,2.13,.79,.8,1.57,1.6,2.38,2.37,.18,.18,.43,.33,.68,.4,.81,.24,1.97-.56,2.18-1.48,.03-.11,.04-.22,.06-.34Zm-.47-7.36c-.6-.04-.97,.41-1.36,.81-.62,.64-.64,1.44-.03,2.07,.8,.82,1.61,1.63,2.43,2.43,.62,.6,1.42,.59,2.05,0,.09-.09,.18-.18,.27-.27,.78-.79,.77-1.57-.04-2.35-.32-.31-.66-.34-.91-.1-.26,.26-.23,.6,.1,.93,.35,.36,.35,.38,0,.73-.07,.07-.15,.14-.22,.22-.15,.16-.3,.16-.46,0-.79-.8-1.59-1.58-2.37-2.39-.07-.08-.1-.31-.05-.38,.16-.2,.36-.42,.59-.52,.1-.04,.31,.2,.48,.31,.26,.18,.53,.19,.76-.04,.22-.21,.25-.49,.07-.73-.31-.42-.71-.74-1.32-.72Zm3.73,8.86c.01-.31-.25-.59-.57-.6-.32-.01-.6,.24-.61,.55-.01,.31,.26,.59,.57,.61,.32,.02,.6-.24,.61-.56Zm-1.83,.69c-.01-.3-.3-.58-.6-.57-.3,.01-.58,.31-.58,.6,0,.3,.28,.59,.58,.59,.31,0,.61-.3,.6-.62Zm2.57-2.56c0-.33-.25-.58-.58-.57-.32,0-.57,.27-.57,.59,0,.32,.26,.58,.59,.57,.32,0,.57-.27,.57-.59Z"/>
  <path d="M0,26.65c.13-.5,.22-1.02,.39-1.51,.15-.44,.36-.87,.57-1.29,.18-.35,.51-.44,.8-.27,.3,.17,.39,.49,.21,.83-1.17,2.13-1.05,4.31-.06,6.43,1.39,2.98,3.68,4.94,6.93,5.64,3.6,.78,6.57-1.31,7.14-4.97,.09-.58,.19-1.16,.3-1.73,.13-.72,.51-1.29,1.14-1.64,.66-.38,1.37-.68,2.03-1.05,.59-.33,1.15-.69,1.71-1.07,.08-.05,.07-.23,.11-.35-.12-.03-.28-.11-.37-.07-1.68,.82-3.1,.14-4.09-1.22-.28,.27-.56,.53-.84,.8-.52,.51-1.05,.52-1.57,.01-.63-.62-1.25-1.24-1.86-1.87-.51-.52-.5-1.06,.02-1.57,1.24-1.21,2.5-2.41,3.74-3.61,.1-.1,.2-.19,.32-.3-.06-.1-.12-.19-.17-.27-1.22-1.74-1.06-3.51,.46-4.99,.16-.15,.51-.29,.33-.55-.09-.13-.46-.12-.68-.07-1.22,.3-2.11,1.08-2.75,2.12-.5,.81-.84,1.71-1.25,2.57-.14,.3-.26,.61-.39,.91-.7,1.68-1.94,2.69-3.74,3.04-1.4,.27-2.76,.68-4,1.44-.22,.13-.42,.28-.63,.43-.35,.23-.67,.21-.88-.06-.21-.28-.14-.63,.21-.89,1.14-.85,2.43-1.38,3.79-1.75,.53-.14,1.06-.26,1.59-.38,1.03-.23,1.83-.78,2.3-1.73,.39-.77,.71-1.58,1.04-2.38,.63-1.51,1.48-2.85,2.88-3.77,.6-.4,1.26-.66,1.98-.77,.72-.11,1.31,.18,1.6,.77,.29,.6,.16,1.23-.39,1.73-.65,.59-1.18,1.24-1.11,2.2,.04,.58,.3,1.07,.65,1.56,.09-.08,.18-.14,.25-.22,3.62-3.49,7.24-6.97,10.85-10.46,.12-.12,.18-.31,.26-.48,.37-.77,.72-1.54,1.1-2.3,.05-.1,.18-.2,.29-.23,.65-.2,1.31-.41,1.98-.57,.29-.07,.53,.1,.6,.4,.08,.33-.03,.59-.37,.7-.46,.15-.93,.26-1.38,.42-.15,.05-.3,.18-.37,.32-.21,.38-.39,.77-.56,1.17-.04,.1-.03,.29,.04,.36,.48,.51,.98,1,1.36,1.39,.65-.14,1.18-.26,1.71-.38,.06-.01,.14-.02,.19,.01,.53,.31,.77-.06,1.01-.42,.1-.15,.23-.28,.33-.42,.7-1.08,1.61-1.9,2.79-2.41,.1-.04,.19-.11,.37-.22-.36-.34-.69-.66-1.03-.95-.06-.06-.21-.05-.3-.03-.49,.13-.98,.27-1.47,.4-.36,.1-.66-.06-.76-.38-.09-.3,.07-.6,.42-.71,.61-.19,1.22-.36,1.83-.52,.36-.1,.68,0,.95,.26,.43,.43,.87,.86,1.3,1.3,.49,.52,.42,1.3-.23,1.57-1.59,.67-2.66,1.87-3.6,3.25-.06,.08-.12,.16-.19,.24-.34,.42-.76,.51-1.26,.33-.23-.08-.53-.18-.72-.09-.54,.25-1.12,.45-1.55,.9-4.45,4.64-8.9,9.28-13.36,13.9-.27,.28-.27,.46-.04,.75,.73,.91,1.43,1.11,2.52,.66,.75-.31,1.45-.12,1.84,.5,.4,.63,.32,1.38-.35,1.87-.73,.54-1.55,.96-2.34,1.41-.27,.16-.57,.29-.86,.41-.94,.37-1.34,1.07-1.44,2.05-.1,1.05-.32,2.09-.76,3.06-1.15,2.53-3.66,4.02-6.44,3.95-4.56-.12-9.16-4.01-9.97-8.9C.07,28.74,.03,28.58,0,28.42c0-.59,0-1.17,0-1.76Zm14.56-5.22c-.38,.37-.77,.74-1.09,1.05,.6,.61,1.17,1.19,1.76,1.79,.34-.36,.71-.74,1.06-1.11-.58-.58-1.14-1.14-1.73-1.73Zm3.47-.09c-.57-.57-1.11-1.11-1.66-1.66-.28,.27-.6,.58-.89,.85,.57,.57,1.13,1.13,1.7,1.7,.28-.29,.58-.61,.85-.89Zm.92-.95c.29-.31,.6-.63,.91-.96-.54-.54-1.05-1.05-1.58-1.59-.33,.31-.66,.63-.96,.92,.55,.55,1.08,1.08,1.63,1.63Zm1.13-4.31c-.29,.32-.59,.66-.87,.97,.47,.48,.97,.99,1.5,1.52,.31-.32,.62-.65,.91-.95-.52-.52-1.01-1.01-1.53-1.53Zm2.4,.64c.32-.33,.62-.65,.87-.91-.49-.5-.96-.98-1.45-1.48-.27,.3-.57,.63-.86,.95,.46,.46,.94,.93,1.44,1.44Zm.45-3.25c.43,.44,.89,.89,1.29,1.3,.31-.27,.64-.56,.95-.83-.48-.48-.93-.93-1.41-1.41-.27,.31-.57,.64-.83,.94Zm2.69-2.74c-.3,.32-.6,.65-.89,.95,.42,.42,.86,.86,1.26,1.26,.31-.28,.64-.57,.95-.85-.46-.47-.88-.9-1.33-1.37Zm3.86-1.5c.37-.33,.74-.66,1.07-.95-.39-.39-.76-.77-1.14-1.15-.32,.33-.66,.69-.97,1.01,.36,.37,.73,.77,1.03,1.09Zm-1.8,1.83c.36-.31,.7-.61,.96-.84-.4-.4-.8-.8-1.22-1.23-.27,.29-.57,.61-.88,.94,.4,.4,.81,.81,1.13,1.13Z"/>
  <path d="M10,31.64c-.02,.11-.04,.23-.06,.34-.21,.92-1.37,1.73-2.18,1.48-.24-.07-.49-.22-.68-.4-.81-.78-1.6-1.58-2.38-2.37-.65-.66-.65-1.46,0-2.13,.13-.14,.27-.27,.41-.4,.57-.53,1.36-.56,1.93-.02,.87,.84,1.73,1.69,2.56,2.57,.22,.23,.31,.59,.46,.89-.02,.01-.04,.03-.06,.04Zm-1.12,.05c-.12-.16-.19-.26-.27-.35-.73-.73-1.45-1.46-2.19-2.19-.31-.31-.37-.3-.74,.07-.37,.38-.38,.43-.08,.74,.72,.72,1.43,1.45,2.16,2.16,.11,.11,.36,.24,.43,.19,.25-.16,.44-.39,.67-.62Z"/>
  <path d="M9.53,24.28c.61-.02,1,.3,1.32,.72,.18,.24,.15,.52-.07,.73-.23,.23-.5,.22-.76,.04-.16-.11-.38-.35-.48-.31-.23,.1-.43,.31-.59,.52-.06,.07-.03,.31,.05,.38,.78,.81,1.58,1.59,2.37,2.39,.16,.16,.3,.16,.46,0,.07-.07,.14-.14,.22-.22,.35-.35,.35-.37,0-.73-.33-.34-.36-.68-.1-.93,.25-.24,.59-.2,.91,.1,.81,.78,.82,1.56,.04,2.35-.09,.09-.18,.18-.27,.27-.62,.6-1.43,.61-2.05,0-.82-.8-1.63-1.61-2.43-2.43-.62-.63-.6-1.44,.03-2.07,.39-.4,.76-.85,1.36-.81Z"/>
  <path d="M13.26,33.14c-.01,.32-.29,.57-.61,.56-.31-.02-.58-.3-.57-.61,.01-.31,.29-.57,.61-.55,.32,.01,.58,.29,.57,.6Z"/>
  <path d="M11.43,33.82c.01,.32-.28,.62-.6,.62-.3,0-.58-.28-.58-.59,0-.3,.28-.59,.58-.6,.3-.01,.59,.26,.6,.57Z"/>
  <path d="M14,31.26c0,.32-.25,.59-.57,.59-.32,0-.58-.25-.59-.57,0-.32,.25-.58,.57-.59,.33,0,.58,.23,.58,.57Z"/>
  <path class="cls-1" d="M14.56,21.44c.59,.59,1.14,1.14,1.73,1.73-.35,.37-.71,.75-1.06,1.11-.59-.6-1.16-1.18-1.76-1.79,.32-.31,.71-.68,1.09-1.05Z"/>
  <path class="cls-1" d="M18.03,21.35c-.27,.28-.57,.6-.85,.89-.57-.57-1.12-1.12-1.7-1.7,.29-.27,.6-.58,.89-.85,.55,.55,1.08,1.08,1.66,1.66Z"/>
  <path class="cls-1" d="M18.95,20.4c-.55-.55-1.08-1.08-1.63-1.63,.3-.29,.63-.6,.96-.92,.53,.54,1.04,1.05,1.58,1.59-.31,.32-.62,.65-.91,.96Z"/>
  <path class="cls-1" d="M20.08,16.09c.52,.52,1.01,1.02,1.53,1.53-.29,.3-.6,.63-.91,.95-.52-.53-1.02-1.04-1.5-1.52,.28-.31,.59-.65,.87-.97Z"/>
  <path class="cls-1" d="M22.49,16.72c-.51-.51-.98-.98-1.44-1.44,.29-.32,.59-.65,.86-.95,.49,.5,.96,.98,1.45,1.48-.25,.26-.55,.58-.87,.91Z"/>
  <path class="cls-1" d="M22.93,13.47c.27-.3,.56-.63,.83-.94,.48,.48,.92,.93,1.41,1.41-.31,.27-.64,.56-.95,.83-.4-.41-.86-.87-1.29-1.3Z"/>
  <path class="cls-1" d="M25.63,10.73c.45,.46,.87,.9,1.33,1.37-.31,.28-.64,.57-.95,.85-.4-.4-.84-.84-1.26-1.26,.28-.3,.58-.63,.89-.95Z"/>
  <path class="cls-1" d="M29.48,9.24c-.3-.32-.68-.71-1.03-1.09,.31-.32,.65-.67,.97-1.01,.38,.38,.75,.76,1.14,1.15-.33,.29-.7,.62-1.07,.95Z"/>
  <path class="cls-1" d="M27.68,11.06c-.32-.32-.73-.73-1.13-1.13,.31-.33,.61-.65,.88-.94,.42,.42,.82,.83,1.22,1.23-.26,.23-.6,.52-.96,.84Z"/>
  <path class="cls-1" d="M8.88,31.69c-.23,.22-.43,.46-.67,.62-.08,.05-.32-.09-.43-.19-.73-.71-1.45-1.44-2.16-2.16-.31-.31-.3-.36,.08-.74,.37-.37,.43-.38,.74-.07,.73,.73,1.46,1.46,2.19,2.19,.09,.09,.15,.19,.27,.35Z"/>
</svg>