<?xml version="1.0" encoding="UTF-8"?>
<svg id="Layer_1" data-name="Layer 1" xmlns="http://www.w3.org/2000/svg" viewBox="0 0 38.43 38.43">
  <defs>
    <style>
      .cls-1 {
        fill: #fff;
      }
    </style>
  </defs>
  <path class="cls-1" d="M0,35.13C0,23.42,0,11.71,0,0c12.81,0,25.62,0,38.43,0V38.43H0C0,37.48,0,36.53,0,35.58c.44,.78,1.06,1.41,1.77,1.96,.36,.28,.76,.3,1.15,.07,.19-.11,.38-.24,.56-.38,1.01-.81,2.02-1.62,3.04-2.44,1.85,.89,3.69-.32,3.58-2.42,.1,0,.19,0,.29-.01,1.44-.1,2.23-.83,2.49-2.29,.02-.11,.11-.22,.2-.29,.73-.63,1.46-1.25,2.19-1.88,.67-.57,.7-.69,.3-1.49-.04-.08-.07-.15-.11-.24,.76-.73,1.51-1.44,2.29-2.19,.48,.54,1.01,.45,1.56,.15,1.15-.63,1.63-1.7,1.22-2.82,.18-.18,.36-.37,.54-.56,.48,.3,.96,.3,1.39,.01,.47-.32,.91-.69,1.3-1.1,.46-.49,.65-1.07,.15-1.76,.13-.1,.26-.17,.37-.28,2.59-2.56,5.18-5.13,7.77-7.7,.17-.17,.3-.36,.48-.51,1.41-1.16,2.72-2.41,3.45-4.15,.03-.08,.1-.14,.16-.2,.64-.63,1.26-1.27,1.93-1.87,.29-.26,.35-.46,.15-.79-.46-.77-1.1-1.31-1.93-1.64-.37-.14-.66-.09-.95,.19-.6,.59-1.21,1.16-1.82,1.72-.11,.1-.25,.16-.37,.23-.36,.19-.79,.3-1.07,.57-.98,.93-1.91,1.9-2.84,2.88-.19,.2-.27,.52-.4,.79-.08,.16-.14,.35-.26,.46-3.16,2.94-6.34,5.87-9.51,8.8-.1,.09-.2,.18-.29,.25-.79-.49-1.33-.44-2.06,.2-1.13,.98-1.18,1.6-.71,2.46-.23,.21-.47,.43-.69,.64-.83-.46-1.15-.42-1.84,.19-.27,.24-.54,.48-.8,.73-.62,.6-.67,1.1-.29,1.66-.89,.96-1.76,1.91-2.63,2.84-.78-.48-1.05-.45-1.7,.13-.05,.04-.09,.08-.14,.13-1.67,1.56-3.33,3.13-5,4.68-.11,.1-.24,.21-.37,.23-1.13,.22-1.93,1.61-1.41,2.91,.1,.24,.05,.37-.12,.54-.36,.36-.68,.76-1.02,1.14Z"/>
  <path d="M0,35.13c.34-.38,.66-.77,1.02-1.14,.17-.17,.21-.3,.12-.54-.52-1.3,.27-2.68,1.41-2.91,.13-.03,.26-.13,.37-.23,1.67-1.56,3.33-3.12,5-4.68,.05-.04,.09-.09,.14-.13,.65-.59,.92-.61,1.7-.13,.86-.93,1.73-1.87,2.63-2.84-.38-.56-.33-1.06,.29-1.66,.26-.25,.53-.49,.8-.73,.69-.61,1.01-.64,1.84-.19,.22-.21,.46-.42,.69-.64-.47-.86-.42-1.47,.71-2.46,.73-.63,1.27-.68,2.06-.2,.09-.08,.19-.16,.29-.25,3.17-2.93,6.34-5.86,9.51-8.8,.12-.11,.18-.3,.26-.46,.13-.26,.21-.58,.4-.79,.92-.98,1.86-1.95,2.84-2.88,.28-.27,.71-.38,1.07-.57,.13-.07,.27-.13,.37-.23,.61-.57,1.23-1.14,1.82-1.72,.29-.28,.58-.33,.95-.19,.83,.33,1.47,.87,1.93,1.64,.2,.33,.14,.54-.15,.79-.67,.6-1.29,1.24-1.93,1.87-.06,.06-.13,.13-.16,.2-.73,1.73-2.03,2.98-3.45,4.15-.18,.15-.32,.35-.48,.51-2.59,2.57-5.18,5.13-7.77,7.7-.11,.1-.24,.18-.37,.28,.5,.69,.31,1.27-.15,1.76-.39,.41-.83,.78-1.3,1.1-.43,.29-.91,.29-1.39-.01-.18,.19-.36,.37-.54,.56,.41,1.11-.07,2.19-1.22,2.82-.56,.3-1.08,.39-1.56-.15-.78,.75-1.53,1.46-2.29,2.19,.04,.09,.07,.16,.11,.24,.4,.8,.37,.92-.3,1.49-.73,.62-1.46,1.25-2.19,1.88-.09,.08-.18,.19-.2,.29-.26,1.46-1.05,2.2-2.49,2.29-.1,0-.19,.01-.29,.01,.11,2.1-1.73,3.31-3.58,2.42-1.02,.82-2.03,1.63-3.04,2.44-.17,.14-.36,.27-.56,.38-.39,.23-.79,.21-1.15-.07C1.06,36.99,.44,36.37,0,35.58,0,35.43,0,35.28,0,35.13ZM28.97,8.08c-6.79,6.12-13.4,12.43-19.93,18.84,.39,.41,.75,.8,1.11,1.17,.07,.07,.2,.16,.27,.14,.6-.18,1.12,.01,1.69,.34,6.39-6.23,12.77-12.45,19.21-18.72q-1.04-.21-2.35-1.77ZM4.81,30.99c-1.36,1.38-2.7,2.75-4.03,4.1-.2,.21-.16,.41,0,.59,.39,.42,.79,.83,1.19,1.24,.26,.27,.55,.26,.83,.03,1.05-.85,2.09-1.69,3.13-2.55,.08-.06,.12-.2,.12-.31,.04-.46,.06-.93,.07-1.39,0-.11,.01-.26-.05-.33-.38-.44-.79-.86-1.26-1.38ZM31.19,9.23c.55-.05,1.03-.24,1.37-.62,.88-.95,1.74-1.92,2.56-2.92,.16-.2,.22-.57,.19-.84-.11-.88-1.82-1.91-2.74-1.01-1,.96-1.95,1.96-2.92,2.95-.28,.29-.29,.66-.08,.97,.28,.41,.6,.8,.95,1.14,.17,.17,.45,.22,.68,.33ZM7.62,34.55c.4-.15,.82-.28,1.19-.47,.5-.26,.7-.73,.68-1.28-.02-.55-.34-.92-.82-1.15-.47-.23-.9-.15-1.27,.19-.46,.43-.77,.95-.81,1.58-.05,.7,.3,1.05,1.03,1.12Zm4.61-4.3c.01-.71-.29-1.09-.79-1.33-.48-.24-.92-.17-1.3,.19-.52,.49-.83,1.08-.8,1.81,.02,.41,.23,.68,.63,.77,.19,.04,.4,.05,.59,.01,.98-.18,1.69-.65,1.66-1.45ZM37.63,2.67c-.37-.63-.9-1.08-1.6-1.32-.08-.03-.21-.01-.26,.04-.56,.51-1.1,1.03-1.66,1.56,1.1,.55,1.13,.58,1.73,1.43,.59-.56,1.18-1.13,1.79-1.71ZM9.15,25.73c-.21-.2-.43,0-.65,.19-1.59,1.49-3.19,2.99-4.78,4.48-.07,.06-.13,.14-.2,.21,.18,.13,.34,.25,.55,.41,1.69-1.76,3.38-3.52,5.08-5.29Zm-2.79,3.86c.38,.42,.76,.83,1.14,1.24,.06,.06,.17,.11,.25,.11,.31,.01,.61,0,.9,0,.06-.31,.12-.59,.17-.87,.01-.08,0-.19-.05-.24-.42-.47-.86-.92-1.3-1.4-.38,.39-.73,.75-1.11,1.15Zm-2.84,1.82c-.4-.37-.91-.37-1.37,0-.53,.42-.71,1.26-.39,1.8,.58-.59,1.16-1.18,1.77-1.79Zm5.63-2.1c.23-.27,.42-.49,.62-.73-.4-.42-.78-.82-1.12-1.18-.26,.23-.47,.43-.7,.64,.41,.43,.8,.84,1.2,1.27Zm3.55-.03c.86-.74,1.69-1.45,2.52-2.17-.08-.17-.15-.31-.24-.49-.85,.81-1.66,1.58-2.48,2.36,.08,.11,.13,.19,.2,.3Zm-7.36,1.36c.37,.41,.75,.84,1.15,1.28,.22-.24,.4-.43,.58-.63-.39-.44-.77-.85-1.13-1.25-.2,.2-.38,.38-.6,.6Zm12.95-13.52c-.41-.29-.78-.19-1.32,.32-.64,.62-.76,.93-.47,1.38,.6-.57,1.19-1.13,1.79-1.7Zm1.71,4.64c-.58,.65-1.14,1.26-1.69,1.88,.2,.18,.3,.18,.76-.09,.61-.35,1.24-1.2,.93-1.79Zm-7.02,.49c.6-.66,1.17-1.3,1.75-1.95-.13,.01-.38-.05-.52,.06-.45,.35-.88,.73-1.28,1.13-.19,.19-.25,.45,.05,.76Zm10.49-3.87c-.63,.68-1.22,1.33-1.78,1.93,.77,.07,2.07-1.21,1.78-1.93Z"/>
  <path class="cls-1" d="M28.97,8.08q1.32,1.55,2.35,1.77c-6.43,6.27-12.82,12.49-19.21,18.72-.56-.33-1.09-.52-1.69-.34-.07,.02-.2-.07-.27-.14-.37-.37-.72-.76-1.11-1.17,6.53-6.41,13.14-12.72,19.93-18.84ZM14.29,25.1c.67,0,1.41-.74,1.42-1.43,.01-.59-.46-1.1-1.03-1.11-.73-.01-1.47,.69-1.48,1.4,0,.62,.49,1.14,1.09,1.14Zm5.95-5.73c0-.55-.38-1.02-.89-1.08-.79-.1-1.63,.67-1.59,1.47,.03,.66,.61,1.15,1.23,1.06,.63-.09,1.25-.81,1.25-1.45Zm-.12-1.95c-.02,.61,.44,1.14,1.03,1.16,.68,.02,1.43-.7,1.46-1.4,.03-.6-.42-1.12-.99-1.14-.75-.03-1.47,.64-1.5,1.38Zm-8.47,10.22c.68,.02,1.42-.71,1.44-1.41,.02-.61-.43-1.11-1.01-1.13-.74-.02-1.46,.65-1.48,1.4-.01,.62,.45,1.13,1.04,1.14Zm3.92-5.84c0,.64,.48,1.13,1.1,1.12,.66-.01,1.37-.76,1.37-1.44,0-.63-.43-1.1-1.02-1.1-.76,0-1.45,.68-1.45,1.42Zm6.73-6.56c0,.62,.49,1.1,1.08,1.1,.68,0,1.4-.76,1.4-1.46,0-.61-.47-1.09-1.05-1.08-.75,0-1.44,.7-1.43,1.44Z"/>
  <path class="cls-1" d="M4.81,30.99c.48,.52,.88,.94,1.26,1.38,.06,.07,.05,.22,.05,.33-.02,.46-.04,.93-.07,1.39,0,.11-.05,.25-.12,.31-1.04,.86-2.08,1.71-3.13,2.55-.28,.23-.56,.24-.83-.03-.4-.41-.8-.82-1.19-1.24-.17-.18-.21-.38,0-.59,1.34-1.36,2.67-2.72,4.03-4.1Z"/>
  <path class="cls-1" d="M31.19,9.23c-.23-.11-.51-.16-.68-.33-.35-.35-.67-.73-.95-1.14-.21-.31-.2-.68,.08-.97,.97-.99,1.92-1.99,2.92-2.95,.93-.89,2.63,.13,2.74,1.01,.04,.27-.02,.64-.19,.84-.82,1-1.68,1.97-2.56,2.92-.34,.37-.82,.56-1.37,.62Zm.36-1.29s.15,0,.24-.03c1-.43,1.86-1.05,2.43-2.01,.19-.31,.24-.66-.02-.98-.28-.35-.67-.42-1.08-.33-.91,.2-2.17,1.55-2.34,2.49-.09,.51,.19,.85,.77,.86Z"/>
  <path class="cls-1" d="M7.62,34.55c-.73-.07-1.07-.42-1.03-1.12,.04-.64,.35-1.16,.81-1.58,.38-.34,.81-.42,1.27-.19,.48,.23,.8,.6,.82,1.15,.02,.55-.18,1.02-.68,1.28-.38,.19-.79,.32-1.19,.47Z"/>
  <path class="cls-1" d="M12.23,30.25c.02,.8-.68,1.27-1.66,1.45-.19,.03-.4,.03-.59-.01-.4-.08-.61-.35-.63-.77-.04-.74,.28-1.32,.8-1.81,.38-.36,.82-.43,1.3-.19,.49,.25,.8,.62,.79,1.33Z"/>
  <path class="cls-1" d="M37.63,2.67c-.61,.58-1.2,1.15-1.79,1.71-.59-.85-.63-.88-1.73-1.43,.56-.53,1.1-1.05,1.66-1.56,.06-.05,.19-.07,.26-.04,.69,.24,1.22,.69,1.6,1.32Z"/>
  <path class="cls-1" d="M9.15,25.73c-1.7,1.77-3.39,3.53-5.08,5.29-.22-.16-.38-.28-.55-.41,.07-.08,.13-.15,.2-.21,1.59-1.49,3.19-2.99,4.78-4.48,.22-.2,.43-.39,.65-.19Z"/>
  <path class="cls-1" d="M6.36,29.59c.39-.4,.73-.76,1.11-1.15,.44,.47,.88,.93,1.3,1.4,.05,.05,.06,.16,.05,.24-.04,.28-.11,.56-.17,.87-.29,0-.6,0-.9,0-.09,0-.19-.05-.25-.11-.39-.41-.76-.82-1.14-1.24Z"/>
  <path class="cls-1" d="M3.52,31.41c-.6,.61-1.18,1.2-1.77,1.79-.31-.53-.13-1.37,.39-1.8,.46-.37,.97-.37,1.37,0Z"/>
  <path class="cls-1" d="M9.14,29.31c-.41-.43-.8-.84-1.2-1.27,.23-.21,.44-.4,.7-.64,.35,.37,.73,.77,1.12,1.18-.2,.24-.39,.46-.62,.73Z"/>
  <path class="cls-1" d="M12.7,29.28c-.07-.11-.13-.19-.2-.3,.82-.78,1.63-1.55,2.48-2.36,.09,.18,.16,.32,.24,.49-.84,.72-1.66,1.43-2.52,2.17Z"/>
  <path class="cls-1" d="M5.34,30.64c.22-.22,.4-.4,.6-.6,.36,.4,.74,.81,1.13,1.25-.18,.2-.36,.39-.58,.63-.4-.44-.78-.87-1.15-1.28Z"/>
  <path class="cls-1" d="M18.29,17.12c-.6,.57-1.19,1.13-1.79,1.7-.29-.45-.17-.76,.47-1.38,.54-.52,.91-.61,1.32-.32Z"/>
  <path class="cls-1" d="M20,21.76c.31,.59-.33,1.44-.93,1.79-.46,.26-.56,.27-.76,.09,.55-.61,1.11-1.23,1.69-1.88Z"/>
  <path class="cls-1" d="M12.98,22.25c-.3-.3-.24-.57-.05-.76,.4-.4,.83-.79,1.28-1.13,.13-.1,.39-.05,.52-.06-.58,.65-1.15,1.28-1.75,1.95Z"/>
  <path class="cls-1" d="M23.47,18.38c.3,.73-1,2.01-1.78,1.93,.56-.61,1.15-1.25,1.78-1.93Z"/>
  <path d="M14.29,25.1c-.6,0-1.1-.52-1.09-1.14,.01-.72,.75-1.41,1.48-1.4,.57,.01,1.04,.52,1.03,1.11-.01,.69-.75,1.43-1.42,1.43Zm.78-1.44c0-.25-.1-.45-.42-.47-.39-.02-.81,.39-.82,.77,0,.28,.12,.49,.42,.52,.33,.04,.8-.43,.82-.83Z"/>
  <path d="M20.24,19.37c0,.64-.62,1.36-1.25,1.45-.63,.09-1.2-.41-1.23-1.06-.04-.8,.8-1.57,1.59-1.47,.51,.06,.89,.53,.89,1.08Zm-.61,0c0-.28-.21-.48-.46-.47-.38,.02-.82,.45-.79,.81,.02,.27,.15,.48,.45,.51,.35,.02,.81-.47,.81-.84Z"/>
  <path d="M20.13,17.42c.03-.74,.75-1.41,1.5-1.38,.57,.02,1.02,.54,.99,1.14-.03,.7-.79,1.42-1.46,1.4-.58-.02-1.05-.55-1.03-1.16Zm.62,.03c0,.27,.19,.51,.42,.53,.34,.02,.82-.46,.83-.83,0-.28-.2-.5-.44-.49-.38,0-.8,.43-.8,.8Z"/>
  <path d="M11.66,27.64c-.59-.01-1.05-.53-1.04-1.14,.02-.74,.73-1.42,1.48-1.4,.58,.02,1.02,.52,1.01,1.13-.02,.7-.77,1.43-1.44,1.41Zm.83-1.44c0-.27-.21-.5-.45-.49-.38,0-.8,.43-.8,.8,0,.29,.14,.48,.43,.52,.34,.04,.83-.46,.83-.82Z"/>
  <path d="M15.58,21.8c0-.74,.69-1.42,1.45-1.42,.59,0,1.03,.47,1.02,1.1,0,.68-.71,1.43-1.37,1.44-.62,.01-1.1-.48-1.1-1.12Zm.6,.02c.03,.24,.15,.46,.44,.49,.34,.04,.82-.46,.83-.83,0-.26-.21-.49-.46-.49-.37,0-.81,.44-.81,.82Z"/>
  <path d="M22.31,15.24c0-.74,.68-1.44,1.43-1.44,.58,0,1.05,.47,1.05,1.08,0,.7-.72,1.45-1.4,1.46-.6,0-1.08-.48-1.08-1.1Zm.61,.04c.03,.22,.15,.43,.45,.44,.36,.02,.82-.47,.81-.84,0-.27-.21-.47-.47-.46-.39,.02-.8,.43-.78,.86Z"/>
  <path d="M31.55,7.94c-.58,0-.86-.35-.77-.86,.16-.93,1.42-2.29,2.34-2.49,.41-.09,.8-.02,1.08,.33,.26,.32,.21,.66,.02,.98-.57,.96-1.43,1.58-2.43,2.01-.09,.04-.2,.02-.24,.03Zm-.18-.64c.68,0,2.23-1.22,2.35-1.79,.05-.26-.11-.35-.32-.33-.17,.01-.34,.07-.49,.16-.66,.4-1.12,.97-1.46,1.65-.04,.08-.05,.19-.08,.31Z"/>
  <path class="cls-1" d="M15.07,23.66c-.02,.4-.48,.87-.82,.83-.3-.03-.42-.24-.42-.52,0-.39,.43-.79,.82-.77,.32,.02,.42,.22,.42,.47Z"/>
  <path class="cls-1" d="M19.63,19.37c0,.37-.46,.86-.81,.84-.29-.02-.43-.23-.45-.51-.02-.36,.42-.79,.79-.81,.25-.01,.46,.2,.46,.47Z"/>
  <path class="cls-1" d="M20.74,17.44c0-.37,.43-.79,.8-.8,.25,0,.45,.22,.44,.49,0,.36-.48,.85-.83,.83-.23-.01-.42-.25-.42-.53Z"/>
  <path class="cls-1" d="M12.49,26.21c0,.36-.48,.87-.83,.82-.28-.03-.43-.23-.43-.52,0-.37,.43-.79,.8-.8,.24,0,.45,.22,.45,.49Z"/>
  <path class="cls-1" d="M16.18,21.82c0-.38,.44-.82,.81-.82,.24,0,.46,.23,.46,.49,0,.36-.49,.86-.83,.83-.29-.03-.41-.25-.44-.49Z"/>
  <path class="cls-1" d="M22.92,15.28c-.01-.42,.39-.84,.78-.86,.26-.01,.46,.19,.47,.46,0,.36-.45,.86-.81,.84-.3-.02-.42-.22-.45-.44Z"/>
  <path class="cls-1" d="M31.36,7.3c.03-.13,.04-.23,.08-.31,.34-.68,.8-1.26,1.46-1.65,.14-.09,.32-.15,.49-.16,.21-.02,.37,.07,.32,.33-.12,.57-1.67,1.79-2.35,1.79Z"/>
</svg>