<?xml version="1.0" encoding="UTF-8"?>
<svg id="Layer_1" data-name="Layer 1" xmlns="http://www.w3.org/2000/svg" viewBox="0 0 39.21 39.21">
  <defs>
    <style>
      .cls-1 {
        fill: #fff;
      }
    </style>
  </defs>
  <path class="cls-1" d="M0,18.15C0,12.1,0,6.05,0,0c13.07,0,26.14,0,39.21,0V39.21H0C0,33.01,0,26.81,0,20.6c.02,.11,.06,.22,.07,.33,.13,.89,.2,1.8,.4,2.68,1.47,6.21,5.08,10.76,10.78,13.59,3.44,1.7,7.1,2.25,10.91,1.79,2.62-.32,5.08-1.14,7.37-2.43,2.74-1.55,4.99-3.64,6.74-6.26,1.34-2.01,2.26-4.21,2.82-6.56,.19-.77-.36-1.43-1.15-1.46-.44-.02-.78,.18-1.11,.44-3.55,2.83-7.56,3.87-12.02,3.08-1.88-.34-3.63-1.05-5.24-2.1-2.17-1.41-3.87-3.26-5.05-5.57-1.23-2.39-1.79-4.94-1.63-7.64,.12-1.94,.52-3.82,1.41-5.55,.5-.97,1.14-1.86,1.75-2.77,.54-.82,.22-1.85-.72-2.05-.31-.07-.68,.01-1,.11C10.2,1.44,6.81,3.79,4.15,7.17,2.16,9.71,.89,12.62,.31,15.81c-.14,.77-.21,1.56-.31,2.34Z"/>
  <path d="M0,18.15c.1-.78,.18-1.57,.31-2.34,.57-3.19,1.84-6.1,3.84-8.64C6.81,3.79,10.2,1.44,14.34,.23c.32-.09,.69-.17,1-.11,.94,.2,1.27,1.23,.72,2.05-.61,.91-1.25,1.8-1.75,2.77-.89,1.73-1.3,3.6-1.41,5.55-.16,2.7,.4,5.24,1.63,7.64,1.19,2.3,2.88,4.16,5.05,5.57,1.61,1.05,3.36,1.76,5.24,2.1,4.46,.8,8.48-.25,12.02-3.08,.33-.26,.67-.45,1.11-.44,.79,.03,1.34,.69,1.15,1.46-.56,2.35-1.48,4.55-2.82,6.56-1.75,2.63-4,4.72-6.74,6.26-2.3,1.29-4.75,2.11-7.37,2.43-3.82,.46-7.48-.09-10.91-1.79C5.56,34.38,1.95,29.83,.48,23.61c-.21-.88-.27-1.79-.4-2.68-.02-.11-.05-.22-.07-.33,0-.82,0-1.63,0-2.45ZM11.85,4.09C5.89,7.11,1.52,14.24,3,22.35c1.43,7.88,8.1,13.68,15.95,14.1,8.2,.44,14.15-4.78,16.36-9.49-7.27,3-14.09,2.32-19.81-3.34-5.6-5.55-6.42-12.27-3.66-19.53Z"/>
  <path class="cls-1" d="M11.85,4.09c-2.77,7.26-1.94,13.99,3.66,19.53,5.72,5.66,12.54,6.34,19.81,3.34-2.21,4.7-8.16,9.92-16.36,9.49-7.85-.42-14.52-6.21-15.95-14.1C1.52,14.24,5.89,7.11,11.85,4.09Z"/>
</svg>