<?xml version="1.0" encoding="UTF-8"?>
<svg id="Layer_1" data-name="Layer 1" xmlns="http://www.w3.org/2000/svg" viewBox="0 0 40.3 40.3">
  <defs>
    <style>
      .cls-1 {
        fill: #fff;
      }
    </style>
  </defs>
  <path d="M0,37C0,25.77,0,14.54,0,3.31c.02-.07,.06-.15,.07-.22C.24,2.2,.68,1.47,1.37,.87,1.93,.39,2.61,.17,3.31,0,14.54,0,25.77,0,37,0c.06,.02,.12,.05,.18,.06,.91,.17,1.65,.61,2.25,1.31,.48,.56,.7,1.24,.87,1.93V37c-.02,.07-.06,.15-.07,.22-.17,.89-.61,1.62-1.3,2.21-.56,.48-1.24,.7-1.94,.87H3.31c-.06-.02-.12-.05-.18-.06-.91-.16-1.65-.61-2.25-1.31C.39,38.37,.17,37.7,0,37Zm8.79,.78v-15.11c-.35,0-.68,0-1.01,0-1.03,0-1.48-.46-1.48-1.49,0-6.06,0-12.12,0-18.18,0-.15,0-.31,0-.44-.07-.02-.09-.04-.12-.04-.67,0-1.34,0-2.01,0-1.23,0-1.66,.43-1.66,1.65,0,10.65,0,21.3,0,31.95,0,.14,0,.29,0,.43,.05,.69,.52,1.21,1.21,1.22,1.68,.03,3.35,0,5.06,0ZM34.01,2.52c0,.2,0,.35,0,.51,0,6.06,0,12.12,0,18.18,0,.99-.47,1.46-1.47,1.46-.34,0-.67,0-1.02,0v15.12h.45c1.39,0,2.78,0,4.17,0,1.23,0,1.66-.43,1.66-1.65,0-10.65,0-21.3,0-31.95,0-.14,0-.29,0-.43-.05-.69-.52-1.19-1.21-1.22-.84-.03-1.68,0-2.57,0Zm-20.15,.01c0,.19,0,.34,0,.5,0,6.08,0,12.17,0,18.25,0,.89-.5,1.38-1.39,1.38-.36,0-.73,0-1.11,0v15.09h7.51v-15.09c-.35,0-.68,0-1,0-1.03,0-1.49-.46-1.49-1.48,0-6.06,0-12.12,0-18.18v-.48h-2.52Zm7.58,20.13v15.09h7.5v-15.09c-.35,0-.66,0-.97,0-1.06,0-1.51-.45-1.51-1.5,0-6.06,0-12.12,0-18.18,0-.15,0-.3,0-.45h-2.52c0,.38,0,.74,0,1.09,0,5.89,0,11.78,0,17.66,0,.86-.5,1.36-1.37,1.37-.37,0-.73,0-1.13,0Z"/>
  <path class="cls-1" d="M3.31,0c-.7,.17-1.37,.39-1.94,.87C.68,1.47,.24,2.2,.07,3.09c-.01,.08-.05,.15-.07,.22C0,2.2,0,1.1,0,0H3.31Z"/>
  <path class="cls-1" d="M40.3,3.31c-.17-.7-.39-1.37-.87-1.93-.6-.7-1.34-1.14-2.25-1.31-.06-.01-.12-.04-.18-.06,1.1,0,2.2,0,3.31,0V3.31Z"/>
  <path class="cls-1" d="M0,37c.17,.7,.39,1.37,.87,1.93,.6,.7,1.34,1.14,2.25,1.31,.06,.01,.12,.04,.18,.06H0v-3.31Z"/>
  <path class="cls-1" d="M37,40.3c.7-.17,1.37-.39,1.94-.87,.69-.59,1.13-1.32,1.3-2.21,.01-.08,.05-.15,.07-.22v3.31h-3.31Z"/>
  <path class="cls-1" d="M8.79,37.78c-1.7,0-3.38,.02-5.06,0-.69-.01-1.16-.53-1.21-1.22-.01-.14,0-.29,0-.43,0-10.65,0-21.3,0-31.95,0-1.22,.43-1.65,1.66-1.65,.67,0,1.34,0,2.01,0,.02,0,.05,.02,.12,.04,0,.14,0,.29,0,.44,0,6.06,0,12.12,0,18.18,0,1.03,.46,1.49,1.48,1.49,.33,0,.65,0,1.01,0v15.11Z"/>
  <path class="cls-1" d="M34.01,2.52c.89,0,1.73-.02,2.57,0,.69,.03,1.16,.53,1.21,1.22,.01,.14,0,.29,0,.43,0,10.65,0,21.3,0,31.95,0,1.22-.43,1.65-1.66,1.65-1.39,0-2.78,0-4.17,0h-.45v-15.12c.35,0,.69,0,1.02,0,1,0,1.47-.46,1.47-1.46,0-6.06,0-12.12,0-18.18,0-.16,0-.31,0-.51Z"/>
  <path class="cls-1" d="M13.85,2.54h2.52v.48c0,6.06,0,12.12,0,18.18,0,1.02,.46,1.48,1.49,1.48,.33,0,.65,0,1,0v15.09h-7.51v-15.09c.38,0,.74,0,1.11,0,.89,0,1.39-.5,1.39-1.38,0-6.08,0-12.17,0-18.25,0-.16,0-.31,0-.5Z"/>
  <path class="cls-1" d="M21.44,22.67c.39,0,.76,0,1.13,0,.86,0,1.37-.5,1.37-1.37,0-5.89,0-11.78,0-17.66,0-.35,0-.71,0-1.09h2.52c0,.15,0,.3,0,.45,0,6.06,0,12.12,0,18.18,0,1.05,.45,1.5,1.51,1.5,.31,0,.63,0,.97,0v15.09h-7.5v-15.09Z"/>
</svg>