<?xml version="1.0" encoding="UTF-8"?>
<svg id="Layer_1" data-name="Layer 1" xmlns="http://www.w3.org/2000/svg" viewBox="0 0 39.21 39.21">
  <defs>
    <style>
      .cls-1 {
        fill: #fff;
      }
    </style>
  </defs>
  <path class="cls-1" d="M30.63,39.21H0V0H8.11c-.23,.05-.47,.1-.7,.15C1.55,1.39-.84,8.3,2.91,12.79c1.46,1.75,3.18,3.27,4.8,4.89,.27,.27,.62,.26,.85,.02,.23-.24,.21-.56-.05-.85-.06-.07-.13-.13-.19-.19-1.41-1.41-2.85-2.79-4.21-4.24-1.66-1.77-2.18-3.89-1.62-6.24C3.63,1.44,9.96-.68,13.74,3.12c3.11,3.14,6.22,6.27,9.37,9.37,.89,.87,1.85,1.69,2.88,2.39,2.21,1.5,4.64,2.18,7.33,1.58,.92-.2,1.79-.5,2.4-1.29,.15-.19,.33-.35,.52-.51,.19-.17,.43-.19,.57,.03,.08,.13,.05,.37,0,.54-.02,.09-.15,.17-.23,.25-1.01,1.01-2.02,2.02-3.03,3.03-.29,.29-.31,.64-.07,.88,.24,.24,.57,.25,.85-.03,1.13-1.11,2.26-2.22,3.35-3.36,.59-.62,.53-1.6-.07-2.18-.6-.58-1.55-.59-2.18-.01-.34,.31-.65,.65-.98,.97-.1,.09-.21,.19-.34,.24-1.16,.47-2.37,.59-3.61,.41-2.2-.31-4.07-1.33-5.63-2.86-3.41-3.35-6.79-6.75-10.17-10.14-1.03-1.03-2.23-1.78-3.64-2.16-.39-.11-.79-.18-1.18-.27h29.34V39.21h-7.28c.07-.03,.14-.06,.21-.08,1.12-.21,2.06-.74,2.78-1.62,1.57-1.91,1.45-4.68-.29-6.45-1.77-1.79-3.55-3.56-5.33-5.34-.22-.21-.45-.41-.75-.69,.17-.13,.3-.2,.4-.29,1.21-1.21,2.42-2.42,3.63-3.63,.06-.06,.13-.13,.19-.19,.33-.34,.36-.67,.08-.93-.26-.25-.58-.22-.9,.11-1.2,1.2-2.4,2.4-3.6,3.6-.17,.17-.31,.37-.52,.61-.48-.51-.9-.93-1.3-1.38-.08-.09-.08-.25-.09-.38-.02-.65,.04-1.31-.06-1.94-.36-2.43-1.41-4.56-3.12-6.31-3.46-3.53-6.97-7.01-10.47-10.49-.93-.92-2.09-1.41-3.39-1.5-2.35-.17-4.51,1.12-5.48,3.23-.96,2.1-.54,4.56,1.12,6.22,8.13,8.14,16.26,16.27,24.4,24.4,1.02,1.02,2.55,1.03,3.54,.06,.97-.96,.97-2.52,0-3.55-.29-.31-.59-.6-.89-.9-4.88-4.87-9.75-9.75-14.63-14.62-.17-.17-.41-.33-.63-.37-.55-.09-1.03-.28-1.42-.68-.35-.35-.71-.7-1.06-1.06-.27-.27-.56-.34-.88-.09-.21,.16-.45,.24-.64,0-.17-.23-.04-.43,.14-.6,.82-.82,1.65-1.64,2.46-2.46,.18-.18,.39-.31,.6-.13,.2,.17,.18,.4,.03,.62-.22,.31-.16,.59,.11,.85,.37,.36,.72,.72,1.08,1.08,.34,.35,.58,.75,.62,1.24,.03,.34,.19,.58,.43,.82,4.98,4.97,9.95,9.94,14.93,14.92,.29,.29,.6,.57,.84,.89,.91,1.19,1.07,2.5,.43,3.85-.63,1.34-1.76,2.02-3.24,2.04-1.08,.02-1.96-.44-2.72-1.2-6.04-6.04-12.08-12.08-18.12-18.12-.12-.12-.23-.24-.37-.33-.26-.18-.51-.14-.73,.08-.2,.21-.21,.46-.07,.7,.06,.1,.14,.18,.22,.26,6.1,6.1,12.21,12.2,18.31,18.3,.59,.59,1.28,1.01,2.07,1.25,.25,.08,.51,.13,.77,.2Z"/>
  <path d="M30.63,39.21c-.26-.06-.52-.12-.77-.2-.8-.24-1.48-.66-2.07-1.25-6.1-6.1-12.2-12.2-18.31-18.3-.08-.08-.17-.16-.22-.26-.14-.25-.13-.49,.07-.7,.21-.22,.47-.26,.73-.08,.14,.09,.25,.22,.37,.33,6.04,6.04,12.08,12.07,18.12,18.12,.76,.76,1.64,1.22,2.72,1.2,1.48-.03,2.61-.7,3.24-2.04,.64-1.35,.47-2.66-.43-3.85-.25-.32-.55-.6-.84-.89-4.97-4.97-9.95-9.95-14.93-14.92-.24-.24-.4-.47-.43-.82-.04-.49-.27-.9-.62-1.24-.36-.36-.72-.73-1.08-1.08-.27-.26-.33-.54-.11-.85,.15-.22,.18-.45-.03-.62-.22-.18-.42-.05-.6,.13-.82,.82-1.64,1.64-2.46,2.46-.18,.18-.31,.38-.14,.6,.19,.24,.43,.17,.64,0,.33-.25,.61-.18,.88,.09,.35,.35,.71,.7,1.06,1.06,.39,.4,.87,.59,1.42,.68,.23,.04,.46,.2,.63,.37,4.88,4.87,9.76,9.74,14.63,14.62,.3,.3,.6,.59,.89,.9,.98,1.03,.98,2.59,0,3.55-.99,.97-2.52,.96-3.54-.06C21.32,28.03,13.18,19.9,5.05,11.76c-1.66-1.67-2.09-4.12-1.12-6.22,.97-2.11,3.13-3.4,5.48-3.23,1.3,.09,2.46,.58,3.39,1.5,3.5,3.48,7.01,6.96,10.47,10.49,1.71,1.75,2.76,3.88,3.12,6.31,.09,.64,.04,1.3,.06,1.94,0,.13,0,.3,.09,.38,.4,.45,.82,.87,1.3,1.38,.2-.25,.35-.44,.52-.61,1.2-1.2,2.4-2.4,3.6-3.6,.33-.33,.64-.36,.9-.11,.27,.26,.25,.59-.08,.93-.06,.06-.13,.13-.19,.19-1.21,1.21-2.42,2.42-3.63,3.63-.1,.1-.22,.17-.4,.29,.3,.28,.54,.47,.75,.69,1.78,1.78,3.57,3.55,5.33,5.34,1.74,1.77,1.86,4.54,.29,6.45-.72,.88-1.67,1.4-2.78,1.62-.07,.01-.14,.05-.21,.08h-1.3Zm-12.19-19.43c-.43-.43-.89-.87-1.33-1.33-.3-.32-.62-.57-1.08-.65-.3-.05-.61-.21-.86-.4-.41-.31-.79-.69-1.16-1.05-.15-.14-.26-.21-.49-.15-.71,.19-1.43-.12-1.75-.71-.34-.61-.22-1.37,.3-1.9,.86-.87,1.73-1.74,2.6-2.6,.52-.52,1.27-.64,1.87-.33,.56,.29,.89,1,.75,1.7-.05,.23,0,.39,.17,.53,.11,.09,.2,.2,.3,.29,.64,.58,1.11,1.25,1.25,2.13,.02,.12,.13,.25,.22,.34,1.93,1.93,3.86,3.86,5.79,5.79,.06,.06,.14,.11,.3,.24-.07-.54-.09-.97-.18-1.39-.45-2.21-1.55-4.05-3.13-5.63-2.27-2.28-4.55-4.55-6.82-6.82-.08-.08-.16-.15-.21-.19-2.08,2.07-4.13,4.13-6.13,6.12,2.59,2.59,5.2,5.2,7.77,7.78,.57-.56,1.17-1.17,1.8-1.79Zm.69,4.57c.11,.07,.25,.12,.35,.22,2.24,2.23,4.48,4.47,6.71,6.71,1.34,1.33,2.67,2.67,4,4.01,.35,.35,.76,.57,1.27,.47,.51-.1,.89-.39,1.04-.91,.15-.52,.02-.98-.37-1.37-1.94-1.94-3.88-3.88-5.82-5.82-.04-.04-.1-.07-.14-.11-.98,.83-1.83,.95-2.47,.29-.23-.24-.41-.59-.48-.92-.14-.67,.2-1.2,.65-1.58-.97-.98-1.92-1.94-2.85-2.88-.59,.58-1.19,1.18-1.89,1.88ZM6.13,11.2c2.08-2.07,4.14-4.13,6.21-6.21-1.14-1.22-2.56-1.79-4.24-1.43-1.81,.39-2.97,1.53-3.39,3.34-.39,1.71,.18,3.15,1.42,4.3Zm1.77,1.72c2.07-2.07,4.12-4.12,6.14-6.14-.26-.27-.55-.57-.81-.83-2.05,2.05-4.1,4.1-6.15,6.15,.26,.26,.55,.55,.82,.82Zm10.42,10.44c.62-.62,1.24-1.24,1.79-1.79-.25-.28-.52-.59-.74-.84-.62,.62-1.23,1.22-1.84,1.83,.26,.26,.54,.55,.8,.8Zm6.39,2.67c-.13,.29-.27,.52-.32,.76-.02,.08,.24,.32,.32,.3,.24-.06,.45-.21,.68-.34-.24-.25-.42-.43-.69-.72Z"/>
  <path d="M9.87,0c.39,.09,.79,.16,1.18,.27,1.41,.38,2.61,1.13,3.64,2.16,3.38,3.39,6.75,6.79,10.17,10.14,1.56,1.53,3.43,2.56,5.63,2.86,1.23,.17,2.44,.05,3.61-.41,.13-.05,.24-.14,.34-.24,.33-.32,.64-.66,.98-.97,.63-.58,1.59-.57,2.18,.01,.6,.58,.66,1.56,.07,2.18-1.1,1.14-2.23,2.25-3.35,3.36-.28,.28-.61,.27-.85,.03-.24-.24-.22-.59,.07-.88,1.01-1.01,2.02-2.02,3.03-3.03,.08-.08,.21-.15,.23-.25,.04-.18,.07-.41,0-.54-.13-.21-.38-.19-.57-.03-.18,.16-.37,.32-.52,.51-.61,.79-1.47,1.09-2.4,1.29-2.69,.59-5.12-.08-7.33-1.58-1.03-.7-1.99-1.52-2.88-2.39-3.15-3.1-6.26-6.24-9.37-9.37C9.96-.68,3.63,1.44,2.49,6.19c-.56,2.35-.05,4.47,1.62,6.24,1.36,1.45,2.81,2.83,4.21,4.24,.06,.06,.13,.12,.19,.19,.26,.29,.28,.61,.05,.85-.24,.24-.58,.26-.85-.02-1.61-1.62-3.34-3.14-4.8-4.89C-.84,8.3,1.55,1.39,7.41,.15c.23-.05,.47-.1,.7-.15h1.76Z"/>
  <path class="cls-1" d="M18.45,19.78c-.63,.62-1.23,1.22-1.8,1.79-2.57-2.58-5.18-5.19-7.77-7.78,1.99-1.99,4.05-4.05,6.13-6.12,.05,.04,.13,.11,.21,.19,2.28,2.27,4.55,4.55,6.82,6.82,1.58,1.58,2.68,3.43,3.13,5.63,.09,.42,.11,.85,.18,1.39-.16-.12-.24-.17-.3-.24-1.93-1.93-3.87-3.86-5.79-5.79-.1-.1-.2-.22-.22-.34-.14-.88-.61-1.55-1.25-2.13-.1-.09-.19-.21-.3-.29-.18-.14-.22-.29-.17-.53,.14-.69-.2-1.41-.75-1.7-.6-.31-1.34-.19-1.87,.33-.87,.86-1.74,1.73-2.6,2.6-.52,.53-.63,1.29-.3,1.9,.32,.58,1.04,.89,1.75,.71,.23-.06,.35,0,.49,.15,.38,.36,.75,.73,1.16,1.05,.25,.19,.56,.34,.86,.4,.46,.08,.77,.33,1.08,.65,.44,.46,.9,.9,1.33,1.33Z"/>
  <path class="cls-1" d="M19.13,24.35c.7-.7,1.31-1.3,1.89-1.88,.93,.94,1.88,1.9,2.85,2.88-.45,.37-.79,.9-.65,1.58,.07,.33,.25,.68,.48,.92,.64,.66,1.49,.54,2.47-.29,.05,.03,.1,.06,.14,.11,1.94,1.94,3.88,3.88,5.82,5.82,.39,.39,.52,.85,.37,1.37-.15,.51-.53,.8-1.04,.91-.51,.1-.91-.11-1.27-.47-1.33-1.34-2.67-2.67-4-4.01-2.24-2.24-4.47-4.47-6.71-6.71-.1-.1-.24-.15-.35-.22Z"/>
  <path class="cls-1" d="M6.13,11.2c-1.23-1.16-1.81-2.59-1.42-4.3,.42-1.81,1.58-2.95,3.39-3.34,1.68-.36,3.1,.2,4.24,1.43-2.08,2.08-4.14,4.14-6.21,6.21Z"/>
  <path class="cls-1" d="M7.89,12.93c-.27-.27-.56-.56-.82-.82,2.05-2.05,4.11-4.11,6.15-6.15,.25,.26,.54,.56,.81,.83-2.02,2.02-4.07,4.07-6.14,6.14Z"/>
  <path class="cls-1" d="M18.31,23.37c-.26-.26-.54-.54-.8-.8,.61-.61,1.22-1.21,1.84-1.83,.22,.25,.49,.56,.74,.84-.55,.55-1.17,1.16-1.79,1.79Z"/>
  <path class="cls-1" d="M24.7,26.04c.27,.28,.45,.46,.69,.72-.24,.12-.45,.28-.68,.34-.08,.02-.34-.21-.32-.3,.04-.24,.19-.46,.32-.76Z"/>
</svg>