<?xml version="1.0" encoding="UTF-8"?>
<svg id="Layer_1" data-name="Layer 1" xmlns="http://www.w3.org/2000/svg" viewBox="0 0 39.56 39.56">
  <defs>
    <style>
      .cls-1 {
        fill: #fff;
      }
    </style>
  </defs>
  <path class="cls-1" d="M13.96,39.56H0V0C3.81,0,7.61,0,11.41,0c-.03,.02-.05,.06-.08,.07-1.05,.28-1.67,1.31-1.58,2.24,.12,1.12,.89,1.82,2.08,1.96,.14,.02,.31,.11,.4,.23,.4,.5,.78,1.02,1.15,1.55,2.18,3.05,4,6.28,4.92,9.96,.17,.7,.31,1.41,.46,2.16-.36,0-.65-.02-.93,0-.26,.02-.37-.07-.44-.33-.31-1.16-.91-2.16-1.85-2.91-1.93-1.54-4.11-1.86-6.43-1.19-2.8,.81-4.55,3.19-4.48,6.02,0,.19,.14,.46,.3,.56,.39,.26,.83-.05,.85-.56,.04-1.37,.42-2.62,1.42-3.6,1.19-1.17,2.66-1.59,4.29-1.56,2.8,.06,4.92,2.06,4.98,4.85,.07,2.83,.03,5.67,0,8.5,0,1.04-.5,1.84-1.42,2.36-.63,.35-1.31,.43-2.01,.37-1.44-.12-2.47-1.21-2.5-2.65-.02-1.18,0-2.37,0-3.55,0-.08,.02-.17,.04-.25h1.15c0,.17,0,.31,0,.45,0,1.07-.02,2.14,0,3.21,.02,1.04,.8,1.78,1.8,1.77,.96-.01,1.7-.71,1.73-1.62,.01-.43-.15-.65-.5-.68-.38-.03-.59,.14-.65,.58-.05,.36-.25,.52-.6,.51-.34-.01-.58-.18-.58-.53,0-1.53-.03-3.06,.03-4.59,.03-.68,.48-1.16,1.16-1.48,0,1.08,0,2.11,0,3.13,0,.48,.22,.74,.59,.73,.36,0,.57-.25,.57-.72,0-1.73,.01-3.45-.02-5.18-.04-2.4-1.59-3.94-3.98-4-2.22-.06-4.27,1.48-4.27,3.99,0,2.97-.01,5.95,.01,8.92,0,1.19,.41,2.27,1.1,3.24,1.57,2.22,4.54,3.18,7.32,2.36,2.85-.83,4.66-3.19,4.7-6.19,.03-2.34,0-4.69,0-7.03,0-2.73-.57-5.36-1.53-7.9-1.16-3.09-2.84-5.9-4.78-8.55-.08-.11-.14-.22-.23-.34H31.18c-.12,.17-.21,.3-.3,.42-1.23,1.68-2.36,3.43-3.34,5.27-1.94,3.65-3.03,7.51-2.94,11.68,.05,2.23,0,4.45,0,6.68,0,2.97-1.1,5.48-3.28,7.46-2.33,2.12-5.09,3.03-8.22,2.37-4.41-.93-7.33-4.63-7.33-9.15,0-2.11,0-4.22,0-6.33,0-.36-.12-.61-.48-.67-.4-.08-.67,.2-.67,.67,0,2.29,0,4.58,0,6.88,0,.4,.02,.8,.1,1.19,.83,4.24,3.32,7.03,7.4,8.38,.59,.2,1.22,.28,1.83,.41Z"/>
  <path class="cls-1" d="M33.31,0c2.08,0,4.16,0,6.25,0V39.56H15.88c.27-.05,.55-.11,.82-.16,4.85-.79,8.94-5.46,9.04-10.37,.05-2.28,.02-4.56,.02-6.83,0-.15,0-.3,0-.5h2.26c.02,.08,.03,.13,.04,.18,.27,.94,1.01,1.4,2.04,1.29,.87-.09,1.53-.78,1.55-1.69,.03-1.04,.03-2.09,0-3.13-.04-1.12-1.01-1.87-2.12-1.7-.85,.13-1.34,.64-1.52,1.47h-1.99c.01-.16,.02-.3,.04-.44,.35-1.94,.93-3.81,1.73-5.61,1.21-2.69,2.83-5.12,4.6-7.47,.17-.23,.35-.35,.65-.38,.88-.1,1.55-.56,1.84-1.43,.28-.86,.08-1.64-.6-2.24C34.02,.32,33.64,.19,33.31,0Z"/>
  <path d="M33.31,0c.33,.19,.71,.32,.98,.57,.68,.6,.89,1.38,.6,2.24-.29,.87-.95,1.32-1.84,1.43-.3,.03-.48,.15-.65,.38-1.77,2.35-3.39,4.78-4.6,7.47-.81,1.8-1.39,3.67-1.73,5.61-.02,.14-.03,.28-.04,.44h1.99c.19-.83,.67-1.34,1.52-1.47,1.11-.17,2.08,.58,2.12,1.7,.03,1.04,.03,2.09,0,3.13-.03,.91-.69,1.59-1.55,1.69-1.03,.11-1.77-.36-2.04-1.29-.01-.05-.02-.1-.04-.18h-2.26c0,.19,0,.34,0,.5,0,2.28,.02,4.56-.02,6.83-.1,4.91-4.2,9.58-9.04,10.37-.28,.04-.55,.1-.82,.16h-1.93c-.61-.13-1.24-.21-1.83-.41-4.08-1.36-6.57-4.14-7.4-8.38-.08-.39-.09-.79-.1-1.19,0-2.29,0-4.58,0-6.88,0-.47,.27-.74,.67-.67,.37,.07,.49,.32,.48,.67,0,2.11,0,4.22,0,6.33,0,4.52,2.92,8.21,7.33,9.15,3.13,.66,5.88-.24,8.22-2.37,2.18-1.98,3.29-4.49,3.28-7.46,0-2.23,.04-4.46,0-6.68-.09-4.17,1.01-8.03,2.94-11.68,.98-1.84,2.11-3.59,3.34-5.27,.09-.12,.18-.25,.3-.42H13.6c.08,.13,.15,.24,.23,.34,1.94,2.66,3.62,5.46,4.78,8.55,.96,2.55,1.52,5.17,1.53,7.9,0,2.34,.03,4.69,0,7.03-.04,3.01-1.85,5.36-4.7,6.19-2.78,.81-5.75-.14-7.32-2.36-.69-.97-1.09-2.05-1.1-3.24-.02-2.97-.01-5.95-.01-8.92,0-2.51,2.06-4.05,4.27-3.99,2.39,.06,3.94,1.6,3.98,4,.03,1.72,.02,3.45,.02,5.18,0,.46-.2,.71-.57,.72-.38,0-.59-.25-.59-.73,0-1.03,0-2.05,0-3.13-.68,.32-1.13,.79-1.16,1.48-.06,1.53-.03,3.06-.03,4.59,0,.36,.24,.52,.58,.53,.35,.01,.55-.16,.6-.51,.06-.44,.27-.62,.65-.58,.36,.03,.52,.24,.5,.68-.03,.91-.77,1.6-1.73,1.62-1.01,.01-1.78-.73-1.8-1.77-.02-1.07,0-2.14,0-3.21,0-.14,0-.28,0-.45h-1.15c-.01,.08-.04,.16-.04,.25,0,1.18-.01,2.37,0,3.55,.02,1.44,1.06,2.53,2.5,2.65,.7,.06,1.38-.03,2.01-.37,.93-.51,1.41-1.32,1.42-2.36,.02-2.83,.06-5.67,0-8.5-.07-2.79-2.19-4.79-4.98-4.85-1.64-.04-3.1,.39-4.29,1.56-1,.98-1.38,2.23-1.42,3.6-.02,.51-.45,.82-.85,.56-.16-.1-.29-.37-.3-.56-.07-2.83,1.68-5.21,4.48-6.02,2.32-.67,4.5-.36,6.43,1.19,.94,.75,1.54,1.75,1.85,2.91,.07,.27,.18,.36,.44,.33,.28-.02,.56,0,.93,0-.16-.75-.29-1.46-.46-2.16-.92-3.68-2.74-6.91-4.92-9.96-.37-.52-.75-1.04-1.15-1.55-.09-.11-.26-.21-.4-.23-1.19-.13-1.97-.83-2.08-1.96-.1-.93,.53-1.96,1.58-2.24,.03,0,.06-.05,.08-.07,1.18,0,2.37,0,3.55,0,.19,.24,.4,.47,.25,.82-.16,.36-.47,.34-.78,.34-.82,0-1.64,0-2.47,0-.42,0-.75,.16-.93,.56-.26,.59,.08,1.39,1,1.39,6.9-.02,13.8-.01,20.7-.01,.09,0,.18,0,.27,0,.42-.04,.73-.34,.79-.77,.1-.73-.3-1.17-1.1-1.17-4.9,0-9.79,0-14.69,0-.12,0-.23,0-.35,0-.33-.03-.59-.31-.51-.63,.04-.19,.19-.35,.29-.52,5.3,0,10.59,0,15.89,0ZM13.71,18.24c-.11-.14-.19-.26-.28-.36-.69-.73-1.57-.94-2.53-.89-1.56,.08-2.72,1.28-2.73,2.84-.01,2.94-.04,5.87,.01,8.81,.04,2,.98,3.49,2.84,4.31,.99,.44,2.04,.56,3.12,.44,2.91-.3,4.82-2.38,4.83-5.31,0-2,0-3.99,0-5.99,0-.12-.01-.25-.02-.37h-1.3c0,.17,0,.31,0,.45,0,1.87,.01,3.73,0,5.6,0,.46-.07,.93-.21,1.36-.61,1.9-2.65,3.09-4.64,2.73-2.03-.37-3.3-1.72-3.41-3.79-.08-1.57-.02-3.14,0-4.71,0-.36,.06-.72,.15-1.07,.59-2.13,1.98-3.45,4.17-4.07Zm.39,1.17c-1.76,.22-3.33,1.85-3.49,3.6h1.18c.32-1.25,1.09-2.05,2.31-2.41v-1.19Zm15.11,.52s0,0,0,0c0,.48-.01,.95,0,1.43,.01,.45,.27,.72,.64,.71,.38-.01,.63-.28,.64-.72,0-.95,0-1.9,0-2.85,0-.45-.25-.71-.63-.73-.38-.02-.62,.23-.64,.7-.02,.49,0,.98,0,1.46Zm-1.23,.57v-1.17h-2.12v1.17h2.12Zm-9.01,0c-.03-.41-.06-.79-.09-1.17h-1.2v1.17h1.3Z"/>
  <path class="cls-1" d="M17.43,0c-.1,.17-.24,.33-.29,.52-.07,.32,.18,.61,.51,.63,.11,0,.23,0,.35,0,4.9,0,9.79,0,14.69,0,.8,0,1.21,.43,1.1,1.17-.06,.42-.37,.72-.79,.77-.09,0-.18,0-.27,0-6.9,0-13.8,0-20.7,.01-.92,0-1.26-.8-1-1.39,.18-.4,.51-.56,.93-.56,.82,0,1.64,0,2.47,0,.31,0,.62,.02,.78-.34C15.36,.47,15.15,.24,14.96,0,15.78,0,16.6,0,17.43,0Z"/>
  <path class="cls-1" d="M13.71,18.24c-2.19,.62-3.58,1.94-4.17,4.07-.09,.34-.15,.71-.15,1.07-.02,1.57-.07,3.14,0,4.71,.11,2.07,1.38,3.42,3.41,3.79,1.98,.36,4.02-.82,4.64-2.73,.14-.43,.2-.91,.21-1.36,.02-1.87,0-3.73,0-5.6,0-.14,0-.28,0-.45h1.3c0,.12,.02,.25,.02,.37,0,2,0,3.99,0,5.99-.01,2.93-1.92,5.01-4.83,5.31-1.09,.11-2.13,0-3.12-.44-1.86-.82-2.8-2.31-2.84-4.31-.05-2.93-.02-5.87-.01-8.81,0-1.56,1.17-2.76,2.73-2.84,.96-.05,1.84,.16,2.53,.89,.09,.1,.17,.21,.28,.36Z"/>
  <path class="cls-1" d="M14.1,19.41v1.19c-1.22,.36-2,1.16-2.31,2.41h-1.18c.17-1.75,1.74-3.38,3.49-3.6Z"/>
  <path class="cls-1" d="M29.21,19.93c0-.49-.02-.98,0-1.46,.02-.47,.26-.72,.64-.7,.38,.02,.62,.28,.63,.73,0,.95,0,1.9,0,2.85,0,.44-.26,.71-.64,.72-.37,0-.63-.26-.64-.71-.01-.48,0-.95,0-1.43,0,0,0,0,0,0Z"/>
  <path class="cls-1" d="M27.99,20.51h-2.12v-1.17h2.12v1.17Z"/>
  <path class="cls-1" d="M18.97,20.51h-1.3v-1.17h1.2c.03,.39,.06,.76,.09,1.17Z"/>
</svg>